<?xml version="1.0" encoding="utf-8" standalone="no"?>
<!DOCTYPE svg PUBLIC "-//W3C//DTD SVG 1.1//EN"
  "http://www.w3.org/Graphics/SVG/1.1/DTD/svg11.dtd">
<!-- Created with matplotlib (http://matplotlib.sourceforge.net/) -->
<svg height="441pt" version="1.1" viewBox="0 0 585 441" width="585pt" xmlns="http://www.w3.org/2000/svg" xmlns:xlink="http://www.w3.org/1999/xlink">
 <defs>
  <style type="text/css">
*{stroke-linecap:square;stroke-linejoin:round;}
  </style>
 </defs>
 <g id="figure_1">
  <g id="patch_1">
   <path d="
M0 441
L585 441
L585 0
L0 0
z
" style="fill:#ffffff;"/>
  </g>
  <g id="axes_1">
   <g id="patch_2">
    <path d="
M73.125 396.9
L526.5 396.9
L526.5 44.1
L73.125 44.1
z
" style="fill:#ffffff;"/>
   </g>
   <g id="line2d_1">
    <path clip-path="url(#p5873ec822d)" d="
M138.634 396.447
L144.271 392.826
L150.091 389.213
L155.1 386.359
L160.295 383.662
L165.277 381.315
L170.53 379.073
L176.288 376.871
L181.745 375.012
L187.187 373.369
L193.174 371.791
L198.812 370.519
L204.732 369.405
L210.783 368.501
L216.736 367.851
L222.268 367.47
L228.054 367.312
L231.404 367.209
L231.519 367.071
L231.138 366.819
L228.724 365.781
L223.918 363.632
L219.355 361.302
L215.255 358.949
L210.63 355.983
L207.294 353.623
L203.791 350.929
L200.157 347.876
L196.437 344.444
L192.677 340.611
L188.935 336.362
L185.27 331.681
L181.749 326.559
L180.064 323.831
L178.441 320.991
L176.891 318.039
L175.423 314.975
L174.046 311.801
L172.77 308.517
L171.606 305.125
L170.563 301.627
L169.651 298.026
L168.881 294.323
L168.262 290.523
L167.803 286.629
L167.515 282.645
L167.407 278.575
L167.487 274.424
L167.764 270.198
L168.246 265.902
L168.942 261.543
L169.858 257.126
L171.001 252.659
L172.377 248.148
L173.992 243.602
L175.851 239.027
L177.956 234.433
L180.313 229.827
L182.923 225.218
L185.788 220.614
L188.909 216.025
L192.285 211.459
L195.916 206.925
L199.799 202.433
L203.932 197.991
L208.311 193.608
L212.932 189.294
L217.787 185.058
L222.872 180.907
L228.179 176.85
L233.699 172.896
L239.422 169.052
L245.34 165.326
L251.686 162.014
L258.377 159.144
L265.127 156.437
L271.921 153.894
L278.742 151.516
L285.576 149.303
L292.407 147.254
L299.22 145.369
L305.999 143.645
L312.731 142.082
L319.4 140.675
L325.993 139.423
L332.496 138.321
L338.897 137.366
L345.183 136.553
L351.343 135.877
L357.367 135.332
L368.962 134.617
L379.896 134.36
L390.11 134.51
L399.554 135.012
L408.195 135.811
L416.009 136.853
L422.986 138.082
L429.128 139.446
L434.446 140.893
L438.961 142.375
L442.702 143.848
L445.707 145.272
L448.018 146.611
L449.683 147.835
L450.752 148.915
L451.279 149.832
L451.319 150.566
L451.174 150.86
L450.587 151.298
L449.649 151.528
L448.414 151.548
L446.931 151.357
L445.248 150.959
L443.41 150.357
L440.451 149.093
L437.359 147.423
L434.24 145.386
L431.181 143.028
L428.253 140.392
L425.512 137.525
L422.997 134.473
L420.736 131.278
L418.746 127.981
L417.034 124.618
L415.6 121.224
L414.437 117.828
L413.537 114.454
L412.883 111.126
L412.459 107.861
L412.248 104.675
L412.231 101.579
L412.389 98.5836
L412.837 94.7573
L413.521 91.1325
L414.398 87.7145
L415.432 84.5046
L416.897 80.7812
L418.501 77.3692
L420.197 74.254
L422.299 70.8832
L424.426 67.8824
L426.886 64.8041
L429.613 61.7795
L432.524 58.9189
L435.524 56.3046
L438.52 53.9885
L441.652 51.848
L444.756 49.9887
L448.002 48.3081
L451.205 46.9055
L454.306 45.7878
L457.375 44.9169
L460.35 44.304
L460.714 44.2452
L460.714 44.2452" style="fill:none;stroke:#ff0000;"/>
   </g>
   <g id="line2d_2">
    <path clip-path="url(#p5873ec822d)" d="
M138.482 396.37
L144.306 391.258
L148.038 388.307
L151.743 385.653
L155.502 383.222
L159.483 380.906
L163.7 378.716
L167.894 376.785
L172.269 375.015
L176.677 373.467
L180.952 372.183
L185.614 371.019
L189.896 370.164
L194.405 369.487
L199.076 369.031
L203.027 368.851
L206.953 368.87
L210.758 369.097
L214.326 369.525
L217.517 370.122
L220.172 370.827
L222.116 371.537
L223.26 372.174
L223.305 372.276
L223.259 372.297
L222.835 372.211
L221.573 371.649
L219.489 370.404
L217.391 368.894
L214.86 366.784
L211.937 363.974
L209.801 361.662
L207.543 358.966
L205.192 355.858
L202.781 352.312
L200.35 348.304
L197.942 343.813
L195.605 338.824
L193.39 333.324
L191.353 327.307
L189.553 320.771
L188.052 313.722
L187.432 310.009
L186.911 306.173
L186.495 302.216
L186.193 298.143
L186.012 293.956
L185.961 289.66
L186.046 285.26
L186.274 280.761
L186.654 276.168
L187.191 271.487
L187.892 266.726
L188.764 261.892
L189.811 256.991
L191.039 252.032
L192.453 247.023
L194.057 241.974
L195.855 236.893
L197.851 231.789
L200.045 226.672
L202.441 221.553
L205.04 216.44
L207.842 211.346
L210.847 206.28
L214.054 201.253
L217.462 196.275
L221.069 191.357
L224.87 186.509
L228.863 181.743
L233.043 177.067
L237.404 172.493
L241.941 168.031
L246.647 163.689
L251.515 159.477
L256.536 155.404
L261.896 151.819
L267.529 148.753
L273.209 145.88
L278.923 143.199
L284.659 140.712
L290.405 138.419
L296.147 136.319
L301.875 134.411
L307.576 132.693
L313.238 131.163
L318.851 129.817
L324.402 128.652
L329.882 127.663
L335.28 126.846
L340.586 126.195
L345.792 125.705
L350.888 125.369
L355.867 125.181
L360.72 125.134
L365.442 125.22
L370.025 125.433
L374.464 125.764
L378.753 126.205
L382.889 126.749
L390.685 128.112
L397.828 129.787
L404.305 131.709
L410.113 133.813
L415.255 136.037
L419.745 138.323
L423.602 140.617
L426.852 142.868
L429.528 145.032
L431.663 147.069
L433.297 148.944
L434.472 150.629
L435.23 152.101
L435.615 153.34
L435.67 154.335
L435.437 155.077
L434.958 155.562
L434.273 155.789
L433.42 155.762
L432.434 155.487
L431.346 154.972
L430.188 154.23
L428.377 152.717
L426.545 150.768
L424.758 148.436
L423.068 145.774
L421.514 142.838
L420.126 139.68
L418.922 136.351
L417.913 132.896
L417.104 129.358
L416.493 125.777
L416.076 122.184
L415.842 118.61
L415.796 113.915
L416.026 109.346
L416.498 104.937
L417.177 100.716
L418.031 96.7012
L419.295 91.9879
L420.727 87.6218
L422.277 83.601
L424.236 79.2183
L426.248 75.2928
L428.6 71.2476
L430.908 67.7237
L433.444 64.2613
L436.128 60.9883
L438.871 58.0003
L441.589 55.3569
L444.408 52.9185
L447.176 50.8048
L450.043 48.8982
L452.84 47.3092
L455.512 46.0428
L458.118 45.0515
L460.61 44.3403
L460.923 44.2681
L460.923 44.2681" style="fill:none;stroke:#ff0000;"/>
   </g>
   <g id="line2d_3">
    <path clip-path="url(#p5873ec822d)" d="
M138.654 396.505
L142.742 394.218
L152.275 388.854
L158.048 385.89
L163.88 383.147
L169.733 380.636
L175.881 378.237
L182.564 375.884
L188.823 373.903
L195.77 371.936
L202.434 370.265
L209.387 368.731
L217.185 367.237
L231.155 364.658
L232.298 364.158
L232.59 363.873
L232.676 363.553
L232.541 363.188
L232.171 362.766
L231.148 362.002
L228.856 360.659
L216.806 353.988
L212.13 351.096
L206.964 347.607
L203.297 344.914
L199.494 341.904
L195.6 338.556
L191.666 334.855
L187.748 330.786
L183.908 326.336
L180.215 321.497
L176.74 316.264
L175.108 313.5
L173.56 310.638
L172.106 307.678
L170.756 304.622
L169.52 301.47
L168.408 298.226
L167.431 294.89
L166.599 291.465
L165.922 287.954
L165.41 284.361
L165.073 280.688
L164.92 276.939
L164.96 273.12
L165.203 269.233
L165.657 265.286
L166.329 261.282
L167.228 257.227
L168.36 253.127
L169.731 248.99
L171.348 244.82
L173.214 240.625
L175.334 236.412
L177.712 232.188
L180.351 227.96
L183.251 223.737
L186.413 219.525
L189.838 215.334
L193.525 211.169
L197.471 207.041
L201.673 202.955
L206.129 198.921
L210.832 194.945
L215.777 191.037
L220.957 187.202
L226.365 183.449
L231.992 179.785
L237.828 176.216
L243.864 172.75
L250.341 169.643
L257.171 166.92
L264.062 164.337
L270.998 161.898
L277.963 159.601
L284.94 157.448
L291.915 155.437
L298.87 153.569
L305.792 151.841
L312.664 150.253
L319.472 148.801
L332.84 146.297
L345.789 144.304
L358.22 142.788
L370.048 141.714
L381.198 141.041
L391.607 140.724
L401.226 140.716
L410.021 140.972
L417.967 141.442
L425.055 142.079
L431.284 142.838
L436.669 143.674
L441.229 144.546
L446.593 145.841
L450.306 147.017
L452.528 147.983
L453.268 148.472
L453.482 148.817
L453.408 148.931
L452.937 149.035
L452.079 148.97
L450.187 148.544
L447.726 147.724
L444.857 146.519
L441.727 144.95
L438.463 143.045
L435.174 140.839
L431.95 138.369
L428.864 135.675
L425.973 132.796
L423.317 129.772
L420.925 126.639
L418.814 123.432
L416.992 120.184
L415.458 116.922
L414.206 113.672
L413.225 110.456
L412.5 107.292
L412.015 104.195
L411.751 101.179
L411.687 98.2541
L411.805 95.4271
L412.212 91.8204
L412.863 88.4071
L413.716 85.1909
L414.734 82.172
L416.188 78.6711
L417.788 75.4632
L419.488 72.5341
L421.601 69.3635
L423.745 66.5395
L426.229 63.6406
L428.988 60.7897
L431.937 58.0905
L434.981 55.6208
L438.025 53.4301
L441.211 51.4031
L444.564 49.5409
L447.836 47.9784
L451.068 46.6742
L454.282 45.6133
L457.446 44.8038
L460.489 44.2555
L460.686 44.2281
L460.686 44.2281" style="fill:none;stroke:#ff0000;"/>
   </g>
   <g id="line2d_4">
    <path clip-path="url(#p5873ec822d)" d="
M138.477 396.47
L148.947 388.817
L153.277 386.045
L157.822 383.4
L162.409 380.982
L167.259 378.676
L172.058 376.625
L177.028 374.726
L181.986 373.044
L187.439 371.427
L192.572 370.118
L197.96 368.959
L203.469 367.995
L208.895 367.258
L215.289 366.629
L221.454 366.017
L222.551 365.696
L222.965 365.343
L223.028 365.032
L222.909 364.643
L222.372 363.881
L220.959 362.437
L213.932 355.666
L210.955 352.44
L207.68 348.521
L205.375 345.485
L203.013 342.087
L200.63 338.307
L198.271 334.129
L195.982 329.541
L193.814 324.532
L191.824 319.098
L190.069 313.238
L188.609 306.957
L188.01 303.662
L187.507 300.265
L187.11 296.77
L186.825 293.179
L186.66 289.495
L186.623 285.721
L186.722 281.861
L186.963 277.92
L187.353 273.902
L187.9 269.812
L188.609 265.655
L189.487 261.438
L190.539 257.166
L191.77 252.846
L193.185 248.485
L194.789 244.089
L196.585 239.667
L198.576 235.225
L200.765 230.772
L203.153 226.316
L205.742 221.864
L208.533 217.426
L211.524 213.01
L214.716 208.624
L218.107 204.278
L221.694 199.978
L225.474 195.735
L229.444 191.557
L233.599 187.451
L237.934 183.427
L242.443 179.492
L247.119 175.654
L251.956 171.92
L256.944 168.298
L262.269 165.069
L267.863 162.257
L273.504 159.6
L279.178 157.099
L284.875 154.753
L290.581 152.564
L296.284 150.531
L301.972 148.652
L307.634 146.927
L313.257 145.353
L318.831 143.929
L324.344 142.651
L329.787 141.515
L335.148 140.518
L340.419 139.656
L350.652 138.318
L360.42 137.459
L369.665 137.035
L378.339 136.998
L386.404 137.296
L393.834 137.877
L400.608 138.69
L406.72 139.683
L412.17 140.804
L416.965 142.006
L421.123 143.244
L424.666 144.476
L428.892 146.231
L431.915 147.777
L433.867 149.026
L434.888 149.911
L435.125 150.387
L434.918 150.465
L434.467 150.345
L433.419 149.798
L432.033 148.82
L430.421 147.434
L428.681 145.67
L426.895 143.566
L425.132 141.162
L423.449 138.503
L421.887 135.632
L420.48 132.59
L419.249 129.42
L418.208 126.16
L417.363 122.843
L416.714 119.502
L416.258 116.164
L415.986 112.853
L415.892 108.517
L416.078 104.305
L416.509 100.248
L417.154 96.3671
L417.978 92.6775
L418.95 89.1878
L420.328 85.112
L421.841 81.3529
L423.444 77.9025
L425.435 74.1511
L427.452 70.7973
L429.786 67.3447
L432.372 63.9421
L435.13 60.7166
L437.964 57.7643
L440.782 55.147
L443.714 52.7286
L446.599 50.6307
L449.588 48.7395
L452.398 47.2202
L455.142 45.9836
L457.788 45.0325
L460.279 44.3708
L460.931 44.2384
L460.931 44.2384" style="fill:none;stroke:#ff0000;"/>
   </g>
   <g id="line2d_5">
    <path clip-path="url(#p5873ec822d)" d="
M138.274 396.447
L141.168 393.188
L144.008 390.329
L147.079 387.557
L150.23 385.002
L153.636 382.519
L157.169 380.211
L160.82 378.078
L164.753 376.041
L168.852 374.18
L172.969 372.562
L176.944 371.226
L181.25 370.017
L185.176 369.123
L189.273 368.395
L193.473 367.857
L197.684 367.518
L202.443 367.349
L210.927 367.154
L212.512 366.85
L213.45 366.441
L213.945 366.052
L214.332 365.551
L214.608 364.917
L214.77 364.131
L214.802 362.614
L214.587 360.624
L213.952 357.09
L211.523 344.489
L210.631 338.583
L209.843 331.722
L209.428 326.598
L209.142 321.027
L209.022 315.008
L209.106 308.546
L209.434 301.653
L210.044 294.345
L210.977 286.646
L212.269 278.587
L213.957 270.205
L216.073 261.545
L218.646 252.655
L221.702 243.592
L223.417 239.015
L225.259 234.418
L227.231 229.809
L229.332 225.197
L231.564 220.59
L233.927 215.998
L236.421 211.429
L239.045 206.893
L241.798 202.398
L244.678 197.953
L247.684 193.568
L250.812 189.251
L254.061 185.012
L257.425 180.859
L260.902 176.8
L264.487 172.843
L268.175 168.997
L271.961 165.269
L275.963 161.956
L280.138 159.085
L284.343 156.377
L288.57 153.834
L292.811 151.455
L297.057 149.241
L301.3 147.192
L305.533 145.307
L309.748 143.583
L313.938 142.02
L318.095 140.614
L322.211 139.362
L326.281 138.261
L330.297 137.306
L334.253 136.494
L338.144 135.819
L341.963 135.276
L349.366 134.564
L356.424 134.31
L363.107 134.462
L369.388 134.968
L375.25 135.772
L380.68 136.818
L385.671 138.052
L390.224 139.42
L394.344 140.871
L398.04 142.358
L402.822 144.559
L406.746 146.608
L412.336 149.84
L414.675 151.12
L415.856 151.548
L416.42 151.571
L416.835 151.382
L417.124 150.986
L417.311 150.386
L417.442 149.124
L417.415 146.137
L417.197 137.561
L417.282 132.391
L417.594 126.9
L418.157 121.257
L418.966 115.605
L420.001 110.058
L421.23 104.701
L422.617 99.5948
L424.123 94.7796
L426.039 89.4173
L428.022 84.5223
L430.357 79.3951
L432.66 74.8674
L435.201 70.3696
L437.893 66.0801
L440.639 62.1388
L443.346 58.6387
L446.129 55.4059
L448.826 52.6083
L451.439 50.208
L453.987 48.1669
L456.335 46.5636
L458.527 45.3333
L460.468 44.4935
L461.212 44.2454
L461.212 44.2454" style="fill:none;stroke:#ff0000;"/>
   </g>
   <g id="line2d_6">
    <path clip-path="url(#p5873ec822d)" d="
M138.321 396.403
L141.504 392.892
L144.391 390.033
L147.439 387.322
L150.634 384.768
L154.075 382.302
L157.637 380.024
L161.314 377.931
L165.275 375.945
L169.406 374.148
L173.561 372.603
L177.579 371.349
L181.941 370.244
L185.927 369.462
L190.099 368.875
L194.391 368.519
L198.709 368.415
L202.928 368.563
L206.89 368.924
L211.928 369.631
L214.689 369.928
L215.47 369.848
L215.977 369.564
L216.154 369.23
L216.199 368.756
L216.015 367.732
L215.304 365.65
L212.007 356.926
L210.543 352.447
L209.014 347.039
L207.515 340.629
L206.589 335.772
L205.762 330.433
L205.076 324.608
L204.573 318.294
L204.294 311.498
L204.287 304.23
L204.594 296.511
L205.26 288.365
L206.329 279.827
L207.84 270.936
L209.832 261.743
L211.018 257.049
L212.337 252.3
L213.791 247.504
L215.384 242.67
L217.118 237.805
L218.995 232.919
L221.018 228.02
L223.187 223.119
L225.503 218.224
L227.966 213.345
L230.577 208.493
L233.334 203.677
L236.237 198.906
L239.283 194.192
L242.47 189.543
L245.796 184.97
L249.257 180.482
L252.85 176.089
L256.569 171.799
L260.41 167.623
L264.367 163.569
L268.436 159.644
L272.748 156.175
L277.257 153.194
L281.799 150.391
L286.366 147.77
L290.948 145.329
L295.536 143.07
L300.122 140.992
L304.697 139.094
L309.252 137.373
L313.778 135.829
L318.267 134.457
L322.712 133.255
L327.104 132.218
L331.436 131.342
L335.701 130.621
L339.892 130.052
L344.003 129.627
L348.027 129.34
L351.961 129.186
L355.797 129.158
L359.532 129.248
L366.682 129.754
L373.383 130.646
L379.612 131.862
L385.358 133.342
L390.612 135.024
L395.376 136.85
L399.654 138.764
L403.459 140.713
L406.806 142.647
L409.715 144.523
L413.312 147.142
L416.071 149.429
L418.617 151.817
L420.82 153.895
L420.848 153.709
L420.599 152.66
L419.461 148.147
L418.69 144.001
L418.184 140.141
L417.835 135.924
L417.676 131.461
L417.719 126.85
L417.968 122.177
L418.412 117.514
L419.037 112.921
L420.041 107.35
L421.253 102.029
L422.629 97.0049
L424.126 92.3047
L426.03 87.1085
L427.996 82.396
L430.308 77.4884
L432.585 73.176
L435.093 68.91
L437.747 64.8561
L440.457 61.142
L443.129 57.8506
L445.883 54.8146
L448.561 52.1885
L451.168 49.9336
L453.728 48.0116
L456.175 46.4566
L458.434 45.284
L460.495 44.4623
L461.146 44.2583
L461.146 44.2583" style="fill:none;stroke:#ff0000;"/>
   </g>
   <g id="line2d_7">
    <path clip-path="url(#p5873ec822d)" d="
M138.44 396.459
L146.396 390.135
L150.466 387.258
L154.595 384.608
L159.026 382.038
L163.588 379.659
L168.266 377.472
L173.263 375.398
L178.413 373.521
L183.518 371.908
L188.366 370.592
L193.513 369.42
L198.857 368.441
L204.24 367.697
L209.436 367.202
L215.906 366.841
L219.581 366.587
L220.689 366.324
L221.133 366
L221.227 365.698
L221.151 365.311
L220.701 364.533
L219.454 363.026
L213.971 356.838
L211.413 353.63
L208.583 349.713
L206.587 346.669
L204.54 343.254
L202.477 339.448
L200.439 335.235
L198.469 330.601
L196.617 325.536
L194.932 320.035
L193.471 314.098
L192.288 307.729
L191.443 300.94
L191.164 297.392
L190.992 293.745
L190.933 290.004
L190.994 286.17
L191.183 282.249
L191.505 278.244
L191.967 274.161
L192.577 270.003
L193.338 265.778
L194.258 261.49
L195.342 257.146
L196.594 252.753
L198.018 248.318
L199.62 243.848
L201.401 239.35
L203.365 234.833
L205.515 230.304
L207.852 225.772
L210.377 221.245
L213.091 216.732
L215.993 212.242
L219.083 207.783
L222.359 203.364
L225.819 198.994
L229.461 194.682
L233.279 190.437
L237.272 186.266
L241.433 182.179
L245.756 178.184
L250.237 174.288
L254.867 170.5
L259.639 166.827
L264.727 163.556
L270.066 160.716
L275.449 158.034
L280.864 155.512
L286.299 153.151
L291.743 150.95
L297.184 148.909
L302.611 147.027
L308.013 145.302
L313.379 143.734
L318.699 142.318
L323.961 141.053
L329.157 139.934
L334.277 138.958
L339.312 138.12
L344.253 137.416
L353.822 136.387
L362.926 135.829
L371.516 135.692
L379.551 135.926
L387 136.477
L393.842 137.291
L400.065 138.316
L405.664 139.498
L410.644 140.786
L415.016 142.133
L418.799 143.493
L422.017 144.826
L425.849 146.694
L428.587 148.311
L430.361 149.595
L431.302 150.485
L431.547 150.94
L431.389 150.991
L430.765 150.687
L429.78 149.931
L428.543 148.742
L427.15 147.151
L425.682 145.194
L424.209 142.911
L422.787 140.347
L421.46 137.547
L420.262 134.555
L419.216 131.413
L418.337 128.162
L417.634 124.84
L417.109 121.478
L416.759 118.108
L416.555 113.646
L416.63 109.266
L416.956 105.009
L417.503 100.907
L418.241 96.9817
L419.137 93.249
L420.438 88.8671
L421.89 84.8066
L423.448 81.0653
L425.403 76.9838
L427.399 73.3245
L429.723 69.5487
L431.995 66.2549
L434.484 63.0134
L437.11 59.9441
L439.788 57.1369
L442.657 54.4498
L445.553 52.0483
L448.482 49.9183
L451.357 48.1137
L454.116 46.6495
L456.75 45.5065
L459.206 44.6803
L460.981 44.2418
L460.981 44.2418" style="fill:none;stroke:#ff0000;"/>
   </g>
   <g id="line2d_8">
    <path clip-path="url(#p5873ec822d)" d="
M138.379 396.45
L143.793 391.573
L147.384 388.666
L151.002 386.01
L154.952 383.391
L158.954 381.002
L163.2 378.729
L167.419 376.711
L171.81 374.847
L176.216 373.202
L181.101 371.628
L185.746 370.365
L190.686 369.263
L195.828 368.375
L200.289 367.814
L205.378 367.406
L210.707 367.216
L216.634 367.006
L217.767 366.728
L218.268 366.358
L218.42 366.007
L218.422 365.552
L218.13 364.635
L217.18 362.864
L211.509 353.333
L209.366 349.159
L207.103 344.16
L205.576 340.334
L204.077 336.093
L202.643 331.423
L201.318 326.315
L200.147 320.763
L199.178 314.766
L198.46 308.329
L198.045 301.463
L197.984 294.185
L198.328 286.52
L198.667 282.55
L199.125 278.496
L199.709 274.361
L200.423 270.152
L201.273 265.873
L202.264 261.53
L203.401 257.131
L204.687 252.681
L206.127 248.189
L207.724 243.66
L209.481 239.104
L211.4 234.528
L213.485 229.941
L215.735 225.35
L218.152 220.765
L220.737 216.194
L223.49 211.646
L226.409 207.13
L229.493 202.655
L232.74 198.23
L236.148 193.865
L239.714 189.567
L243.433 185.346
L247.302 181.21
L251.315 177.168
L255.466 173.228
L259.751 169.397
L264.161 165.684
L268.85 162.382
L273.763 159.519
L278.713 156.819
L283.692 154.281
L288.689 151.906
L293.693 149.696
L298.695 147.649
L303.684 145.765
L308.65 144.041
L313.584 142.476
L318.477 141.068
L323.319 139.812
L328.102 138.706
L332.817 137.746
L337.456 136.927
L342.011 136.244
L346.476 135.692
L355.107 134.96
L363.301 134.683
L371.018 134.809
L378.226 135.287
L384.902 136.06
L391.03 137.075
L396.604 138.275
L401.623 139.61
L406.093 141.027
L410.029 142.479
L413.449 143.924
L417.664 145.988
L420.865 147.828
L423.746 149.775
L425.799 151.428
L425.525 151.017
L424.184 148.893
L422.968 146.568
L421.686 143.624
L420.46 140.164
L419.38 136.298
L418.506 132.131
L417.874 127.761
L417.498 123.277
L417.381 118.756
L417.51 114.261
L417.867 109.847
L418.429 105.556
L419.17 101.419
L420.307 96.4988
L421.63 91.8854
L423.092 87.5927
L424.651 83.6241
L426.597 79.282
L428.577 75.379
L430.876 71.3435
L433.432 67.3523
L435.865 63.9473
L438.422 60.7216
L441.263 57.5081
L444.002 54.7417
L446.751 52.2701
L449.516 50.0788
L452.211 48.2234
L454.779 46.7189
L457.26 45.5236
L459.55 44.6662
L461.066 44.2444
L461.066 44.2444" style="fill:none;stroke:#ff0000;"/>
   </g>
   <g id="line2d_9">
    <path clip-path="url(#p5873ec822d)" d="
M138.582 396.473
L143.802 393.057
L149.688 389.326
L154.602 386.469
L159.716 383.756
L165.021 381.203
L170.285 378.914
L176.049 376.662
L181.501 374.759
L187.636 372.864
L193.634 371.251
L200.058 369.776
L205.894 368.655
L211.737 367.737
L218.073 366.963
L228.119 365.823
L228.554 365.557
L228.604 365.326
L228.445 365.038
L227.794 364.471
L226.104 363.381
L218.68 358.806
L215.119 356.372
L211.08 353.355
L206.635 349.674
L203.497 346.813
L200.26 343.6
L196.967 340.018
L193.668 336.047
L190.414 331.674
L187.266 326.886
L184.286 321.677
L181.542 316.044
L180.281 313.069
L179.105 309.989
L178.024 306.805
L177.047 303.519
L176.183 300.132
L175.442 296.648
L174.833 293.067
L174.364 289.394
L174.046 285.632
L173.886 281.785
L173.893 277.856
L174.076 273.851
L174.442 269.774
L175 265.631
L175.756 261.428
L176.717 257.17
L177.89 252.865
L179.279 248.518
L180.89 244.137
L182.728 239.729
L184.796 235.302
L187.097 230.864
L189.633 226.423
L192.406 221.986
L195.418 217.563
L198.666 213.161
L202.151 208.79
L205.871 204.458
L209.823 200.172
L214.004 195.943
L218.408 191.778
L223.032 187.685
L227.868 183.673
L232.91 179.75
L238.15 175.923
L243.579 172.2
L249.189 168.588
L255.196 165.367
L261.523 162.561
L267.905 159.909
L274.328 157.411
L280.776 155.069
L287.236 152.882
L293.693 150.85
L300.133 148.972
L306.541 147.247
L312.905 145.673
L319.211 144.246
L325.446 142.965
L331.597 141.826
L337.653 140.826
L343.603 139.959
L355.139 138.609
L366.129 137.736
L376.503 137.296
L386.206 137.24
L395.193 137.519
L403.431 138.079
L410.901 138.87
L417.591 139.839
L423.503 140.936
L428.648 142.115
L433.044 143.329
L436.72 144.537
L439.709 145.702
L442.051 146.79
L443.789 147.771
L444.972 148.621
L445.648 149.318
L445.869 149.847
L445.686 150.195
L445.149 150.354
L444.308 150.319
L443.21 150.088
L441.182 149.379
L438.821 148.248
L436.253 146.721
L433.588 144.831
L430.918 142.617
L428.321 140.119
L425.856 137.383
L423.57 134.45
L421.496 131.363
L419.657 128.162
L418.065 124.882
L416.724 121.559
L415.633 118.221
L414.785 114.896
L414.168 111.605
L413.77 108.369
L413.574 105.203
L413.563 102.121
L413.807 98.1588
L414.308 94.3809
L415.027 90.7989
L415.927 87.4187
L416.972 84.2421
L418.437 80.5544
L420.029 77.1725
L421.704 74.0825
L423.772 70.7367
L425.858 67.7558
L428.262 64.696
L430.921 61.6874
L433.753 58.84
L436.664 56.2362
L439.563 53.9282
L442.588 51.7943
L445.759 49.8357
L448.84 48.1933
L451.869 46.8228
L454.865 45.7072
L457.797 44.8531
L460.595 44.2688
L460.786 44.2377
L460.786 44.2377" style="fill:none;stroke:#ff0000;"/>
   </g>
   <g id="line2d_10">
    <path clip-path="url(#p5873ec822d)" d="
M138.354 396.5
L144.95 390.886
L148.838 387.932
L152.73 385.246
L156.754 382.722
L161.268 380.163
L165.61 377.943
L170.258 375.806
L175.058 373.837
L179.827 372.103
L185.044 370.443
L190.635 368.92
L196.459 367.594
L202.285 366.5
L213.925 364.436
L215.521 363.873
L216.424 363.337
L217.047 362.66
L217.294 362.109
L217.401 361.459
L217.288 360.266
L216.84 358.754
L215.727 356.129
L210.097 343.986
L208.159 339.083
L206.21 333.375
L204.96 329.098
L203.795 324.432
L202.756 319.368
L201.887 313.906
L201.235 308.047
L200.848 301.797
L200.773 295.17
L201.059 288.184
L201.753 280.863
L202.901 273.236
L203.659 269.32
L204.545 265.341
L205.565 261.305
L206.724 257.218
L208.024 253.086
L209.47 248.914
L211.066 244.711
L212.812 240.482
L214.714 236.235
L216.771 231.977
L218.986 227.715
L221.359 223.458
L223.891 219.212
L226.581 214.987
L229.43 210.79
L232.435 206.628
L235.594 202.511
L238.906 198.446
L242.367 194.44
L245.974 190.502
L249.722 186.639
L253.607 182.859
L257.623 179.169
L261.765 175.576
L266.026 172.086
L270.551 168.961
L275.287 166.224
L280.059 163.631
L284.858 161.182
L289.674 158.878
L294.497 156.719
L299.317 154.705
L304.126 152.835
L308.913 151.108
L313.669 149.522
L318.386 148.075
L323.054 146.763
L332.214 144.535
L341.086 142.808
L349.615 141.547
L357.75 140.714
L365.45 140.263
L372.682 140.151
L379.418 140.328
L385.641 140.747
L391.339 141.358
L396.509 142.115
L401.155 142.973
L407.163 144.352
L412.068 145.727
L417.028 147.356
L422.427 149.17
L423.235 149.191
L423.494 148.984
L423.568 148.598
L423.394 147.686
L422.572 145.321
L420.895 140.454
L419.918 137.016
L419.05 133.219
L418.355 129.157
L417.872 124.917
L417.621 120.581
L417.605 116.217
L417.816 111.885
L418.241 107.635
L418.856 103.503
L419.639 99.521
L420.815 94.785
L422.166 90.3423
L423.646 86.2065
L425.536 81.6523
L427.496 77.5348
L429.805 73.2554
L432.083 69.4994
L434.597 65.7849
L437.262 62.2535
L439.987 59.0143
L442.909 55.9079
L445.657 53.3034
L448.498 50.917
L451.209 48.9236
L453.818 47.2713
L456.33 45.9407
L458.64 44.9652
L460.738 44.3157
L461.101 44.2297
L461.101 44.2297" style="fill:none;stroke:#ff0000;"/>
   </g>
   <g id="line2d_11">
    <path clip-path="url(#p5873ec822d)" d="
M137.801 396.437
L137.697 395.11
L137.797 393.454
L138.149 391.452
L138.775 389.182
L139.683 386.71
L140.872 384.11
L142.323 381.49
L143.913 379.086
L145.632 376.9
L147.356 375.057
L149.176 373.43
L151.034 372.06
L152.854 370.963
L154.917 369.974
L157.258 369.128
L159.453 368.556
L161.898 368.123
L164.626 367.838
L168.325 367.686
L174.091 367.733
L181.93 367.823
L186.995 367.642
L191.449 367.218
L195.035 366.654
L198.837 365.811
L202.858 364.618
L205.66 363.59
L208.559 362.347
L211.552 360.866
L214.639 359.12
L217.814 357.083
L221.076 354.73
L224.417 352.036
L227.832 348.976
L231.315 345.527
L234.857 341.671
L238.449 337.388
L242.08 332.665
L245.741 327.491
L249.419 321.861
L253.102 315.773
L256.777 309.234
L260.43 302.253
L264.049 294.849
L267.619 287.046
L271.127 278.876
L274.56 270.376
L277.906 261.591
L281.154 252.572
L284.295 243.378
L288.784 229.392
L292.99 215.38
L296.899 201.585
L301.649 183.957
L307.812 160.61
L309.555 154.984
L311.268 150.028
L312.966 145.748
L314.666 142.137
L316.382 139.18
L318.127 136.854
L319.914 135.127
L320.826 134.476
L321.754 133.961
L322.696 133.574
L323.656 133.312
L324.633 133.166
L326.644 133.2
L328.735 133.622
L330.909 134.377
L333.168 135.408
L336.716 137.347
L351.191 145.828
L355.448 147.862
L358.333 149.039
L361.245 150.047
L364.175 150.866
L367.114 151.485
L370.054 151.893
L372.985 152.086
L375.901 152.061
L378.792 151.82
L381.652 151.367
L384.476 150.709
L387.255 149.855
L389.986 148.815
L392.664 147.6
L395.285 146.223
L397.844 144.698
L401.563 142.164
L405.132 139.374
L408.545 136.375
L411.8 133.214
L414.897 129.932
L418.78 125.434
L422.389 120.874
L425.733 116.32
L429.558 110.725
L433.664 104.265
L437.845 97.2063
L441.917 89.8801
L446.105 81.8968
L450.612 72.8178
L455.209 63.0499
L459.007 54.4781
L461.017 49.4466
L461.854 46.8041
L462.096 45.3693
L462.023 44.5775
L461.865 44.2484
L461.865 44.2484" style="fill:none;stroke:#ff0000;"/>
   </g>
   <g id="line2d_12">
    <path clip-path="url(#p5873ec822d)" d="
M138.46 396.495
L150.281 388.091
L154.781 385.317
L159.55 382.644
L164.206 380.276
L169.453 377.865
L174.623 375.735
L179.94 373.777
L185.197 372.058
L190.91 370.419
L196.975 368.926
L203.206 367.639
L210.036 366.48
L219.66 364.907
L221.094 364.443
L221.805 364.007
L222.086 363.656
L222.2 363.243
L222.14 362.754
L221.704 361.845
L220.837 360.678
L218.995 358.611
L213.057 352.112
L210.166 348.634
L207.016 344.474
L204.819 341.286
L202.586 337.746
L200.354 333.836
L198.169 329.542
L196.078 324.855
L194.133 319.767
L192.389 314.275
L190.903 308.382
L189.736 302.094
L189.29 298.806
L188.947 295.425
L188.713 291.953
L188.596 288.393
L188.604 284.748
L188.743 281.022
L189.021 277.218
L189.444 273.342
L190.019 269.398
L190.752 265.391
L191.649 261.326
L192.715 257.21
L193.956 253.047
L195.375 248.846
L196.978 244.612
L198.767 240.352
L200.746 236.074
L202.917 231.785
L205.282 227.492
L207.842 223.204
L210.598 218.928
L213.549 214.672
L216.695 210.445
L220.033 206.254
L223.563 202.108
L227.28 198.014
L231.182 193.981
L235.263 190.016
L239.519 186.128
L243.944 182.323
L248.532 178.609
L253.275 174.993
L258.165 171.483
L263.382 168.341
L268.861 165.592
L274.385 162.989
L279.942 160.532
L285.52 158.221
L291.107 156.057
L296.692 154.04
L302.262 152.169
L307.806 150.442
L313.312 148.858
L318.771 147.414
L324.171 146.108
L334.754 143.895
L344.984 142.189
L354.793 140.955
L364.121 140.153
L372.916 139.739
L381.136 139.666
L388.75 139.886
L395.735 140.35
L402.079 141.009
L407.777 141.815
L412.834 142.722
L417.262 143.685
L422.768 145.149
L426.992 146.527
L430.824 148.053
L433.35 149.321
L433.498 149.412
L433.368 149.326
L433.368 149.326
L432.083 148.315
L430.366 146.709
L428.309 144.451
L426.671 142.374
L425.032 140.009
L423.45 137.398
L421.97 134.581
L420.628 131.598
L419.447 128.489
L418.445 125.289
L417.628 122.033
L417 118.752
L416.557 115.471
L416.293 112.215
L416.205 107.946
L416.39 103.796
L416.818 99.7958
L417.457 95.9659
L418.275 92.3217
L419.5 88.0409
L420.9 84.0712
L422.425 80.4106
L424.362 76.4141
L426.357 72.8276
L428.699 69.1238
L431.001 65.8897
L433.535 62.704
L436.22 59.6847
L438.967 56.9207
L441.921 54.2727
L444.909 51.9043
L447.777 49.9074
L450.666 48.162
L453.511 46.7058
L456.232 45.565
L458.794 44.7322
L460.953 44.231
L460.953 44.231" style="fill:none;stroke:#ff0000;"/>
   </g>
   <g id="line2d_13">
    <path clip-path="url(#p5873ec822d)" d="
M138.731 396.525
L142.637 394.616
L157.138 387.351
L163.592 384.447
L170.182 381.727
L176.9 379.191
L183.703 376.849
L190.845 374.611
L198.883 372.342
L206.758 370.351
L215.883 368.293
L228.738 365.682
L233.954 364.492
L235.773 363.897
L236.687 363.424
L237.052 363.085
L237.199 362.718
L237.115 362.315
L236.781 361.867
L235.78 361.086
L234.139 360.139
L230.891 358.533
L218.989 352.841
L213.666 350.076
L207.761 346.762
L203.549 344.214
L199.162 341.372
L194.643 338.217
L190.046 334.733
L185.43 330.903
L180.86 326.716
L176.41 322.161
L172.155 317.233
L170.127 314.627
L168.18 311.928
L166.323 309.136
L164.57 306.25
L162.93 303.273
L161.415 300.205
L160.036 297.048
L158.805 293.804
L157.733 290.475
L156.831 287.065
L156.111 283.575
L155.583 280.01
L155.257 276.373
L155.144 272.668
L155.254 268.899
L155.595 265.072
L156.178 261.191
L157.009 257.262
L158.097 253.29
L159.449 249.281
L161.071 245.242
L162.968 241.178
L165.146 237.097
L167.607 233.005
L170.355 228.91
L173.391 224.819
L176.717 220.738
L180.332 216.676
L184.235 212.64
L188.425 208.637
L192.897 204.674
L197.648 200.761
L202.672 196.903
L207.964 193.108
L213.515 189.383
L219.317 185.735
L225.36 182.171
L231.635 178.698
L238.13 175.322
L245.112 172.285
L252.483 169.613
L259.923 167.074
L267.412 164.67
L274.932 162.401
L282.467 160.269
L289.999 158.271
L297.51 156.409
L304.984 154.68
L312.404 153.083
L327.017 150.276
L341.226 147.965
L354.918 146.125
L367.992 144.721
L380.359 143.719
L391.944 143.076
L402.685 142.75
L412.536 142.697
L421.464 142.872
L429.453 143.23
L436.495 143.726
L442.6 144.318
L450.043 145.299
L455.526 146.281
L459.195 147.158
L461.229 147.841
L461.774 148.152
L461.741 148.33
L461.193 148.361
L459.542 148.115
L457.079 147.504
L453.998 146.526
L450.479 145.19
L446.683 143.515
L442.751 141.529
L438.803 139.264
L434.939 136.756
L431.239 134.041
L427.764 131.158
L424.561 128.143
L421.66 125.032
L419.08 121.857
L416.829 118.648
L414.907 115.432
L413.306 112.233
L412.015 109.071
L411.015 105.964
L410.289 102.926
L409.816 99.9687
L409.573 97.1024
L409.539 94.3338
L409.692 91.6682
L410.151 88.28
L410.857 85.0852
L411.768 82.0843
L412.843 79.2747
L414.368 76.0244
L416.037 73.0526
L417.802 70.3435
L419.99 67.4154
L422.205 64.8102
L424.766 62.1381
L427.609 59.5115
L430.648 57.0251
L433.785 54.7496
L437.193 52.5681
L440.684 50.6137
L444.083 48.9615
L447.563 47.5122
L451.057 46.2974
L454.478 45.3403
L457.87 44.6229
L460.579 44.2222
L460.579 44.2222" style="fill:none;stroke:#ff0000;"/>
   </g>
   <g id="line2d_14">
    <path clip-path="url(#p5873ec822d)" d="
M138.302 396.472
L142.14 392.616
L145.389 389.681
L148.727 386.959
L152.251 384.363
L155.946 381.906
L159.992 379.492
L164.156 377.275
L168.618 375.172
L173.233 373.271
L177.823 371.637
L182.2 370.304
L186.874 369.113
L191.766 368.109
L196.756 367.325
L202.35 366.701
L211.712 365.787
L213.335 365.375
L214.289 364.923
L214.993 364.298
L215.315 363.757
L215.514 363.099
L215.577 361.846
L215.358 360.215
L214.641 357.32
L210.319 341.933
L209.049 336.121
L207.882 329.402
L207.219 324.401
L206.692 318.976
L206.341 313.126
L206.207 306.856
L206.333 300.177
L206.76 293.105
L207.532 285.662
L208.69 277.877
L210.271 269.787
L212.313 261.431
L214.845 252.859
L216.304 248.507
L217.895 244.121
L219.622 239.708
L221.485 235.277
L223.487 230.833
L225.629 226.387
L227.912 221.946
L230.336 217.517
L232.9 213.111
L235.604 208.735
L238.447 204.397
L241.428 200.107
L244.543 195.874
L247.79 191.704
L251.167 187.607
L254.668 183.591
L258.291 179.664
L262.03 175.833
L265.881 172.107
L269.837 168.491
L274.026 165.267
L278.402 162.46
L282.81 159.806
L287.242 157.307
L291.688 154.964
L296.141 152.776
L300.59 150.743
L305.029 148.865
L309.449 147.14
L313.842 145.566
L318.199 144.14
L322.513 142.86
L326.777 141.722
L330.983 140.723
L335.125 139.858
L343.192 138.512
L350.929 137.644
L358.297 137.209
L365.261 137.159
L371.795 137.444
L377.878 138.012
L383.498 138.81
L388.648 139.787
L393.328 140.892
L397.544 142.079
L403.02 143.912
L407.532 145.689
L412.175 147.773
L417.568 150.222
L418.552 150.396
L418.973 150.267
L419.236 149.943
L419.368 149.426
L419.372 148.3
L419.039 145.556
L418.11 138.38
L417.733 133.498
L417.59 128.222
L417.678 123.836
L417.953 119.39
L418.412 114.949
L419.228 109.491
L420.279 104.213
L421.526 99.1753
L422.928 94.4199
L424.444 89.9704
L426.363 85.0489
L428.338 80.5825
L430.655 75.9267
L432.932 71.8309
L435.436 67.7737
L438.083 63.9125
L440.78 60.3691
L443.662 56.9715
L446.361 54.1247
L449.137 51.5192
L451.771 49.3462
L454.287 47.5481
L456.687 46.1027
L458.869 45.0437
L460.831 44.3341
L461.172 44.2379
L461.172 44.2379" style="fill:none;stroke:#ff0000;"/>
   </g>
   <g id="line2d_15">
    <path clip-path="url(#p5873ec822d)" d="
M138.589 396.402
L149.337 388.784
L153.843 385.978
L158.38 383.418
L162.94 381.094
L167.757 378.887
L172.531 376.934
L177.493 375.133
L182.471 373.55
L187.991 372.044
L193.245 370.848
L198.836 369.828
L203.82 369.142
L208.875 368.67
L213.855 368.443
L218.567 368.472
L222.761 368.741
L226.135 369.183
L228.341 369.665
L229.022 369.938
L229.012 369.962
L228.659 369.94
L227.388 369.615
L225.139 368.812
L221.88 367.354
L218.777 365.712
L215.139 363.5
L212.44 361.663
L209.545 359.502
L206.481 356.992
L203.281 354.105
L199.98 350.817
L196.622 347.102
L193.257 342.943
L189.937 338.32
L186.724 333.22
L183.681 327.635
L182.244 324.66
L180.875 321.562
L179.584 318.342
L178.38 315.001
L177.271 311.54
L176.267 307.962
L175.377 304.267
L174.612 300.46
L173.979 296.542
L173.489 292.517
L173.151 288.39
L172.972 284.164
L172.963 279.845
L173.131 275.437
L173.485 270.947
L174.032 266.381
L174.779 261.745
L175.734 257.047
L176.902 252.295
L178.29 247.495
L179.901 242.656
L181.742 237.787
L183.815 232.897
L186.124 227.994
L188.671 223.089
L191.458 218.19
L194.484 213.307
L197.751 208.451
L201.257 203.63
L205.001 198.856
L208.979 194.137
L213.188 189.485
L217.623 184.908
L222.28 180.416
L227.152 176.02
L232.232 171.727
L237.512 167.548
L242.983 163.49
L248.637 159.563
L254.693 156.092
L261.072 153.109
L267.507 150.305
L273.983 147.682
L280.485 145.241
L286.998 142.981
L293.509 140.902
L300.002 139.004
L306.464 137.284
L312.88 135.739
L319.238 134.368
L325.524 133.166
L331.726 132.13
L337.832 131.255
L343.829 130.536
L349.709 129.968
L355.459 129.545
L361.07 129.261
L366.535 129.109
L371.844 129.082
L376.989 129.175
L381.965 129.378
L391.384 130.09
L400.062 131.158
L407.972 132.519
L415.097 134.114
L421.435 135.882
L426.99 137.766
L431.779 139.71
L435.824 141.664
L439.158 143.581
L441.817 145.419
L443.843 147.141
L445.285 148.714
L446.189 150.112
L446.607 151.313
L446.592 152.301
L446.194 153.062
L445.464 153.59
L444.451 153.879
L443.203 153.931
L441.765 153.748
L440.178 153.337
L438.48 152.704
L436.708 151.862
L434.893 150.82
L433.064 149.594
L430.349 147.439
L427.73 144.949
L425.263 142.174
L422.991 139.167
L420.943 135.975
L419.139 132.645
L417.587 129.218
L416.292 125.732
L415.248 122.223
L414.447 118.72
L413.878 115.248
L413.524 111.83
L413.371 108.485
L413.4 105.225
L413.692 101.034
L414.235 97.0371
L414.991 93.248
L415.921 89.6733
L416.991 86.3152
L418.481 82.4191
L420.092 78.8486
L421.78 75.589
L423.859 72.0628
L425.949 68.9247
L428.355 65.7072
L431.011 62.5477
L433.836 59.5619
L436.737 56.8354
L439.626 54.422
L442.638 52.1934
L445.616 50.2588
L448.72 48.5109
L451.774 47.0514
L454.796 45.8593
L457.713 44.9499
L460.535 44.3027
L460.775 44.2585
L460.775 44.2585" style="fill:none;stroke:#ff0000;"/>
   </g>
   <g id="line2d_16">
    <path clip-path="url(#p5873ec822d)" d="
M138.323 396.448
L142.206 392.535
L145.458 389.587
L148.784 386.87
L152.285 384.291
L155.952 381.859
L159.964 379.475
L164.095 377.294
L168.051 375.441
L172.042 373.788
L176.497 372.185
L180.772 370.876
L185.368 369.707
L189.52 368.858
L193.803 368.182
L198.13 367.7
L203.068 367.384
L208.853 367.267
L212.963 367.156
L214.486 366.941
L215.344 366.635
L215.933 366.153
L216.167 365.705
L216.269 365.135
L216.169 364.007
L215.765 362.484
L214.771 359.704
L211.479 350.833
L209.957 346.114
L208.399 340.52
L207.39 336.273
L206.445 331.596
L205.601 326.479
L204.897 320.915
L204.376 314.906
L204.082 308.455
L204.06 301.573
L204.353 294.278
L205.008 286.593
L206.067 278.549
L207.57 270.183
L209.557 261.539
L210.741 257.127
L212.059 252.666
L213.513 248.161
L215.106 243.621
L216.84 239.053
L218.719 234.464
L220.744 229.865
L222.916 225.261
L225.235 220.664
L227.703 216.08
L230.319 211.52
L233.082 206.993
L235.991 202.506
L239.045 198.07
L242.24 193.693
L245.575 189.385
L249.046 185.153
L252.648 181.007
L256.378 176.955
L260.23 173.006
L264.199 169.166
L268.28 165.444
L272.606 162.136
L277.13 159.268
L281.687 156.563
L286.268 154.022
L290.866 151.645
L295.469 149.433
L300.07 147.385
L304.66 145.5
L309.23 143.776
L313.771 142.212
L318.275 140.805
L322.734 139.552
L327.14 138.449
L331.486 137.492
L335.764 136.677
L339.969 135.998
L344.092 135.452
L352.075 134.731
L359.669 134.467
L366.84 134.609
L373.559 135.103
L379.805 135.894
L385.564 136.926
L390.83 138.146
L395.603 139.5
L399.889 140.937
L403.698 142.409
L408.556 144.589
L412.452 146.618
L416.304 148.905
L420.528 151.486
L420.843 151.5
L420.996 151.304
L420.978 150.623
L420.494 148.512
L419.388 143.773
L418.611 139.384
L418.119 135.433
L417.797 131.204
L417.67 126.793
L417.751 122.288
L418.037 117.761
L418.517 113.276
L419.174 108.882
L420.214 103.577
L421.455 98.5332
L422.853 93.7859
L424.366 89.3556
L426.281 84.4674
L428.252 80.0413
L430.562 75.4369
L432.831 71.3936
L435.325 67.3948
L437.962 63.5944
L440.649 60.1109
L443.298 57.0215
L446.024 54.169
L448.835 51.5594
L451.509 49.3832
L454.071 47.5817
L456.464 46.1634
L458.7 45.0919
L460.734 44.3601
L461.143 44.245
L461.143 44.245" style="fill:none;stroke:#ff0000;"/>
   </g>
   <g id="line2d_17">
    <path clip-path="url(#p5873ec822d)" d="
M138.122 396.547
L139.658 394.428
L141.753 391.915
L144.314 389.197
L147.266 386.397
L150.455 383.68
L153.996 380.967
L157.565 378.508
L161.523 376.063
L165.312 373.969
L169.633 371.845
L173.93 369.985
L178.637 368.201
L183.699 366.533
L189.69 364.8
L199.084 362.117
L202.268 360.949
L204.685 359.814
L206.404 358.792
L208.03 357.577
L209.557 356.122
L210.981 354.373
L212.304 352.271
L213.532 349.756
L214.677 346.762
L215.76 343.225
L216.809 339.079
L218.221 332.505
L224.373 301.784
L226.529 292.605
L229.117 282.708
L231.119 275.748
L233.366 268.531
L235.876 261.091
L238.665 253.469
L241.748 245.707
L245.134 237.853
L248.832 229.958
L252.843 222.076
L257.167 214.262
L261.799 206.572
L266.729 199.062
L271.943 191.789
L277.423 184.804
L283.146 178.159
L286.163 175.201
L292.418 170.093
L298.722 165.491
L305.036 161.399
L311.323 157.812
L317.546 154.721
L323.669 152.108
L329.661 149.95
L335.491 148.22
L341.132 146.885
L346.562 145.908
L351.761 145.251
L356.713 144.873
L361.407 144.731
L365.835 144.785
L371.969 145.138
L377.495 145.7
L386.791 146.964
L391.797 147.584
L395 147.799
L397.789 147.739
L399.443 147.528
L400.952 147.172
L402.332 146.666
L403.596 146.009
L404.759 145.204
L405.835 144.252
L407.313 142.562
L408.66 140.578
L409.91 138.329
L411.475 134.976
L413.337 130.328
L416.258 122.217
L421.517 107.543
L424.616 99.5871
L427.716 92.2485
L430.752 85.6364
L433.668 79.782
L436.749 74.0747
L439.885 68.7368
L442.958 63.9325
L446.089 59.4535
L449.081 55.5577
L451.921 52.2141
L454.607 49.387
L457.043 47.1454
L459.097 45.5459
L460.753 44.526
L461.421 44.2157
L461.421 44.2157" style="fill:none;stroke:#ff0000;"/>
   </g>
   <g id="line2d_18">
    <path clip-path="url(#p5873ec822d)" d="
M138.226 396.457
L140.521 393.623
L143.012 390.894
L145.832 388.138
L148.917 385.445
L152.229 382.861
L155.779 380.392
L159.22 378.258
L162.935 376.21
L166.815 374.331
L170.723 372.687
L174.506 371.317
L178.62 370.063
L183.035 368.976
L187.014 368.214
L191.113 367.632
L195.933 367.186
L201.914 366.899
L207.2 366.619
L209.185 366.326
L210.485 365.964
L211.604 365.425
L212.529 364.655
L213.032 363.982
L213.444 363.159
L213.763 362.163
L214.074 360.297
L214.193 357.911
L214.097 353.781
L213.101 333.108
L213.055 325.663
L213.274 317.235
L213.621 311.071
L214.168 304.478
L214.95 297.471
L215.999 290.069
L217.35 282.298
L219.034 274.193
L221.081 265.793
L223.518 257.144
L226.368 248.297
L229.65 239.31
L233.379 230.245
L237.563 221.167
L239.827 216.644
L242.205 212.144
L244.697 207.676
L247.302 203.248
L250.018 198.869
L252.844 194.549
L255.776 190.295
L258.814 186.116
L261.953 182.021
L265.19 178.018
L268.521 174.115
L271.942 170.32
L275.449 166.64
L279.144 163.364
L282.99 160.52
L286.862 157.836
L290.752 155.311
L294.654 152.947
L298.561 150.745
L302.465 148.703
L306.36 146.82
L310.24 145.096
L314.096 143.528
L317.923 142.114
L321.716 140.85
L325.466 139.733
L329.17 138.76
L332.821 137.925
L336.414 137.224
L339.944 136.652
L346.798 135.874
L353.348 135.543
L359.568 135.609
L365.435 136.021
L370.933 136.725
L376.05 137.665
L380.781 138.79
L385.126 140.046
L389.089 141.385
L394.336 143.446
L398.786 145.445
L405.539 148.797
L408.687 150.276
L410.47 150.895
L411.428 151.058
L412.227 151.016
L412.891 150.77
L413.439 150.322
L413.89 149.678
L414.427 148.36
L414.842 146.648
L415.286 143.821
L416.341 134.673
L417.35 127.176
L418.492 120.463
L419.893 113.747
L421.522 107.212
L423.332 100.991
L425.27 95.1659
L427.285 89.7852
L429.672 84.0918
L432.038 79.0211
L434.66 73.9496
L437.447 69.0858
L440.299 64.5981
L443.111 60.6016
L446 56.905
L448.792 53.7058
L451.484 50.9648
L453.992 48.722
L456.332 46.9183
L458.459 45.5523
L460.337 44.6039
L461.277 44.2422
L461.277 44.2422" style="fill:none;stroke:#ff0000;"/>
   </g>
   <g id="line2d_19">
    <path clip-path="url(#p5873ec822d)" d="
M138.531 396.413
L147.63 389.554
L151.815 386.758
L156.026 384.202
L160.396 381.801
L165.148 379.458
L170.016 377.32
L174.661 375.512
L179.332 373.907
L184.528 372.36
L189.492 371.111
L194.802 370.016
L199.565 369.247
L204.436 368.675
L209.29 368.329
L213.96 368.226
L218.228 368.352
L222.341 368.714
L225.842 369.209
L225.606 369.063
L221.997 367.156
L218.927 365.231
L216.049 363.18
L212.719 360.51
L208.998 357.127
L206.341 354.432
L203.579 351.355
L200.749 347.873
L197.893 343.964
L195.057 339.609
L192.294 334.794
L189.661 329.508
L187.217 323.744
L185.027 317.501
L184.048 314.202
L183.157 310.785
L182.363 307.253
L181.674 303.608
L181.1 299.852
L180.648 295.988
L180.327 292.019
L180.145 287.95
L180.11 283.785
L180.231 279.527
L180.514 275.184
L180.968 270.76
L181.599 266.261
L182.414 261.695
L183.419 257.067
L184.62 252.386
L186.022 247.658
L187.63 242.892
L189.447 238.097
L191.478 233.28
L193.725 228.452
L196.189 223.62
L198.873 218.795
L201.777 213.986
L204.901 209.202
L208.244 204.453
L211.804 199.749
L215.579 195.099
L219.566 190.514
L223.76 186.003
L228.156 181.575
L232.749 177.24
L237.533 173.006
L242.499 168.883
L247.641 164.879
L252.949 161.002
L258.626 157.571
L264.597 154.616
L270.62 151.836
L276.68 149.233
L282.764 146.808
L288.858 144.559
L294.949 142.488
L301.025 140.593
L307.071 138.872
L313.076 137.323
L319.027 135.943
L324.912 134.729
L330.719 133.676
L336.438 132.781
L342.059 132.039
L347.57 131.444
L352.963 130.99
L358.229 130.672
L363.36 130.484
L368.348 130.419
L377.87 130.629
L386.746 131.246
L394.942 132.211
L402.434 133.465
L409.205 134.947
L415.253 136.599
L420.583 138.364
L425.209 140.19
L429.151 142.026
L432.439 143.828
L435.107 145.553
L437.193 147.165
L438.74 148.634
L439.792 149.933
L440.396 151.041
L440.599 151.941
L440.448 152.622
L439.989 153.075
L439.268 153.297
L438.328 153.289
L437.209 153.052
L435.95 152.593
L434.585 151.919
L432.412 150.53
L430.171 148.723
L427.943 146.542
L425.793 144.037
L423.772 141.258
L421.921 138.253
L420.266 135.072
L418.824 131.757
L417.606 128.35
L416.612 124.89
L415.841 121.408
L415.283 117.934
L414.929 114.494
L414.765 111.109
L414.816 106.71
L415.142 102.473
L415.705 98.4198
L416.468 94.5675
L417.397 90.9252
L418.742 86.6734
L420.24 82.7546
L421.844 79.1603
L423.852 75.2557
L425.898 71.7683
L428.278 68.182
L430.603 65.0625
L433.15 61.9999
L435.84 59.1056
L438.587 56.4625
L441.539 53.9347
L444.53 51.676
L447.572 49.671
L450.578 47.9683
L453.489 46.5805
L456.297 45.488
L459.011 44.6705
L460.856 44.2552
L460.856 44.2552" style="fill:none;stroke:#ff0000;"/>
   </g>
   <g id="line2d_20">
    <path clip-path="url(#p5873ec822d)" d="
M138.219 396.477
L140.538 393.667
L143.069 390.942
L145.947 388.173
L149.103 385.458
L152.494 382.846
L156.129 380.343
L159.651 378.177
L163.451 376.094
L167.414 374.178
L171.398 372.496
L175.247 371.088
L179.42 369.787
L183.883 368.642
L188.568 367.693
L193.37 366.963
L198.806 366.369
L206.205 365.596
L208.289 365.187
L209.678 364.752
L210.898 364.16
L211.935 363.361
L212.52 362.684
L213.016 361.87
L213.423 360.9
L213.869 359.105
L214.126 356.835
L214.214 354.011
L214.121 349.249
L213.61 333.518
L213.598 326.519
L213.813 318.581
L214.36 309.698
L214.963 303.261
L215.795 296.426
L216.89 289.213
L218.28 281.647
L219.996 273.759
L222.067 265.588
L224.519 257.177
L227.375 248.577
L230.654 239.842
L234.369 231.031
L238.529 222.207
L243.137 213.435
L245.607 209.089
L248.188 204.783
L250.878 200.522
L253.675 196.317
L256.576 192.176
L259.58 188.107
L262.682 184.117
L265.881 180.215
L269.171 176.409
L272.549 172.705
L276.011 169.112
L279.656 165.905
L283.449 163.109
L287.267 160.466
L291.104 157.976
L294.951 155.639
L298.803 153.457
L302.653 151.427
L306.494 149.551
L310.319 147.825
L314.122 146.249
L317.896 144.819
L321.636 143.534
L325.335 142.389
L328.988 141.381
L332.59 140.506
L339.619 139.135
L346.384 138.237
L352.853 137.767
L358.998 137.679
L364.798 137.921
L370.237 138.443
L375.304 139.193
L379.994 140.121
L384.305 141.176
L390.074 142.895
L395.032 144.648
L400.466 146.819
L407.179 149.505
L409.159 150.049
L410.239 150.18
L411.151 150.119
L411.919 149.865
L412.563 149.419
L413.103 148.785
L413.557 147.97
L414.113 146.423
L414.698 143.81
L415.313 139.789
L417.324 125.661
L418.546 119.03
L420.011 112.415
L421.691 105.992
L423.539 99.8834
L425.505 94.17
L427.539 88.8948
L429.937 83.3151
L432.309 78.3464
L434.93 73.3769
L437.71 68.6102
L440.549 64.2107
L443.345 60.2912
L446.212 56.664
L448.979 53.5231
L451.643 50.8308
L454.217 48.548
L456.559 46.7651
L458.67 45.4314
L460.495 44.5338
L461.287 44.2365
L461.287 44.2365" style="fill:none;stroke:#ff0000;"/>
   </g>
   <g id="line2d_21">
    <path clip-path="url(#p5873ec822d)" d="
M138.091 396.524
L139.243 394.635
L140.938 392.294
L143.048 389.755
L145.556 387.084
L148.356 384.423
L151.338 381.885
L154.639 379.372
L158.067 377.045
L161.771 374.818
L165.636 372.779
L169.521 370.995
L173.272 369.501
L177.34 368.107
L181.696 366.843
L186.954 365.564
L199.835 362.608
L202.443 361.721
L204.34 360.898
L206.178 359.893
L207.948 358.657
L209.647 357.135
L211.274 355.266
L212.834 352.985
L214.335 350.223
L215.793 346.912
L217.229 342.981
L218.672 338.365
L220.67 331.044
L223.44 319.87
L228.288 300.296
L230.884 290.546
L233.882 280.059
L237.343 268.923
L239.933 261.198
L242.767 253.278
L245.856 245.211
L249.207 237.048
L252.827 228.842
L256.719 220.651
L260.88 212.534
L265.307 204.551
L269.99 196.762
L274.918 189.226
L280.074 181.999
L285.438 175.136
L288.253 172.095
L294.072 166.877
L299.933 162.2
L305.802 158.067
L311.646 154.476
L317.434 151.413
L323.134 148.861
L328.72 146.795
L334.164 145.185
L339.445 143.995
L344.541 143.188
L349.436 142.721
L354.116 142.55
L358.571 142.63
L362.794 142.917
L366.78 143.364
L372.315 144.241
L378.88 145.585
L389.436 147.851
L392.621 148.288
L395.45 148.407
L397.161 148.294
L398.748 148.019
L400.223 147.579
L401.598 146.975
L402.886 146.209
L404.097 145.285
L405.243 144.21
L406.857 142.331
L408.373 140.16
L409.813 137.732
L411.651 134.159
L413.864 129.278
L416.888 121.971
L425.778 100.056
L429.44 91.7428
L432.921 84.3798
L436.167 77.9929
L439.458 71.9812
L442.673 66.5469
L445.938 61.4673
L449.044 57.0445
L451.974 53.2506
L454.725 50.0489
L457.187 47.5181
L459.26 45.6941
L460.896 44.5348
L461.464 44.2226
L461.464 44.2226" style="fill:none;stroke:#ff0000;"/>
   </g>
   <g id="line2d_22">
    <path clip-path="url(#p5873ec822d)" d="
M137.964 396.382
L138.353 394.663
L139.047 392.606
L140.055 390.3
L141.371 387.83
L142.968 385.294
L144.81 382.783
L146.834 380.399
L149.04 378.16
L151.287 376.201
L153.684 374.422
L156.158 372.888
L158.62 371.637
L160.971 370.676
L163.562 369.861
L166.408 369.234
L168.982 368.886
L171.749 368.717
L174.71 368.743
L178.525 369.033
L183.332 369.68
L193.236 371.151
L196.521 371.381
L199.053 371.367
L201.643 371.124
L204.288 370.582
L206.082 370.016
L207.901 369.257
L209.745 368.278
L211.614 367.052
L213.51 365.549
L215.433 363.742
L217.385 361.6
L219.368 359.096
L221.383 356.202
L223.434 352.891
L225.524 349.139
L227.655 344.925
L229.831 340.23
L232.057 335.041
L235.498 326.311
L239.075 316.442
L242.804 305.456
L248.042 289.183
L258.03 257.012
L264.252 237.229
L269.174 222.13
L274.312 207.096
L277.854 197.245
L281.486 187.628
L285.201 178.327
L288.994 169.421
L292.859 160.986
L294.815 156.968
L296.804 153.425
L300.841 147.544
L302.864 144.885
L304.888 142.415
L306.912 140.134
L308.934 138.042
L310.953 136.138
L312.967 134.419
L314.974 132.884
L316.974 131.528
L318.965 130.349
L320.945 129.343
L322.914 128.504
L324.87 127.827
L326.812 127.308
L328.739 126.939
L330.649 126.715
L332.542 126.628
L334.417 126.672
L336.273 126.84
L339.924 127.514
L343.49 128.589
L346.967 130.002
L350.35 131.688
L353.636 133.584
L358.384 136.687
L364.37 141.011
L372.633 147.096
L376.459 149.671
L380.095 151.805
L382.419 152.949
L384.668 153.857
L386.845 154.518
L388.953 154.929
L390.997 155.09
L392.98 155.005
L394.904 154.678
L396.774 154.119
L398.591 153.339
L400.36 152.35
L402.081 151.166
L403.758 149.801
L406.194 147.449
L408.541 144.779
L410.803 141.843
L412.985 138.694
L415.776 134.246
L418.437 129.61
L421.591 123.693
L425.697 115.442
L430.968 104.249
L445.699 72.594
L449.991 64.0399
L453.728 57.0744
L456.969 51.4891
L459.893 46.8835
L461.639 44.2645
L461.639 44.2645" style="fill:none;stroke:#ff0000;"/>
   </g>
   <g id="line2d_23">
    <path clip-path="url(#p5873ec822d)" d="
M138.195 396.482
L140.26 393.85
L142.669 391.142
L145.348 388.46
L148.291 385.821
L151.459 383.271
L154.86 380.816
L158.494 378.476
L162.123 376.395
L165.916 374.47
L169.739 372.767
L174 371.13
L178.078 369.803
L182.452 368.624
L187.061 367.632
L191.813 366.849
L197.906 366.11
L204.78 365.279
L206.968 364.823
L208.457 364.353
L209.8 363.726
L210.981 362.893
L211.991 361.796
L212.567 360.887
L213.065 359.813
L213.669 357.845
L214.112 355.381
L214.414 352.344
L214.654 347.269
L215.31 326.005
L215.824 318.115
L216.652 309.292
L217.428 302.901
L218.419 296.117
L219.655 288.96
L221.166 281.454
L222.981 273.63
L225.127 265.527
L227.627 257.187
L230.502 248.66
L233.77 239.999
L237.443 231.263
L241.528 222.514
L246.028 213.817
L250.94 205.237
L253.547 201.012
L256.254 196.841
L259.058 192.733
L261.956 188.696
L264.946 184.738
L268.024 180.866
L271.188 177.088
L274.433 173.412
L277.755 169.844
L281.247 166.657
L284.875 163.876
L288.526 161.245
L292.194 158.765
L295.873 156.436
L299.555 154.259
L303.236 152.234
L306.907 150.359
L310.564 148.633
L314.201 147.054
L317.81 145.62
L321.388 144.328
L324.928 143.175
L328.425 142.157
L335.271 140.509
L341.888 139.347
L348.244 138.631
L354.311 138.314
L360.067 138.349
L365.493 138.686
L370.578 139.274
L375.314 140.061
L379.697 140.999
L383.729 142.04
L389.134 143.696
L395.192 145.868
L403.86 149.121
L406.127 149.73
L407.398 149.914
L408.501 149.912
L409.456 149.72
L410.284 149.339
L411.003 148.771
L411.63 148.022
L412.434 146.572
L413.118 144.759
L413.913 141.84
L415.015 136.584
L417.953 121.92
L419.523 115.299
L421.278 108.793
L423.185 102.548
L425.2 96.6627
L427.625 90.3292
L430.069 84.6069
L432.475 79.4971
L435.126 74.3749
L437.932 69.4524
L440.789 64.9024
L443.596 60.8445
L446.468 57.0868
L449.231 53.832
L451.881 51.0426
L454.43 48.6792
L456.734 46.8361
L458.795 45.4612
L460.568 44.5348
L461.32 44.2348
L461.32 44.2348" style="fill:none;stroke:#ff0000;"/>
   </g>
   <g id="line2d_24">
    <path clip-path="url(#p5873ec822d)" d="
M138.052 396.431
L138.829 394.59
L139.992 392.405
L141.574 389.92
L143.475 387.352
L145.669 384.768
L148.09 382.266
L150.638 379.949
L153.304 377.819
L156.211 375.796
L158.918 374.164
L162.001 372.575
L165.03 371.272
L167.887 370.261
L170.987 369.385
L174.332 368.681
L177.91 368.179
L181.703 367.895
L185.68 367.823
L191.196 367.968
L197.536 368.12
L200.346 367.996
L202.435 367.74
L204.499 367.287
L206.535 366.574
L207.875 365.921
L209.201 365.1
L210.512 364.087
L211.81 362.858
L213.098 361.389
L214.377 359.651
L215.651 357.621
L216.925 355.271
L218.205 352.577
L220.151 347.835
L222.153 342.188
L224.246 335.574
L227.245 325.174
L232.404 306.126
L237.557 287.25
L241.119 274.782
L245.089 261.614
L249.5 247.918
L252.701 238.59
L256.115 229.18
L259.746 219.758
L263.593 210.397
L267.655 201.17
L271.924 192.153
L276.392 183.42
L281.048 175.042
L285.876 167.089
L288.35 163.292
L290.908 159.924
L293.536 157.014
L296.174 154.273
L298.821 151.702
L301.472 149.301
L304.124 147.072
L306.775 145.013
L309.42 143.123
L312.056 141.4
L314.681 139.844
L317.291 138.45
L319.883 137.215
L322.455 136.137
L325.003 135.21
L327.524 134.43
L330.017 133.791
L332.479 133.29
L334.908 132.919
L337.301 132.673
L341.973 132.53
L346.482 132.807
L350.816 133.449
L354.967 134.398
L358.929 135.596
L362.699 136.988
L366.274 138.517
L371.275 140.954
L377.29 144.22
L386.167 149.099
L389.407 150.607
L392.357 151.671
L394.179 152.115
L395.899 152.341
L397.525 152.346
L399.067 152.131
L400.534 151.702
L401.935 151.064
L403.277 150.228
L404.567 149.202
L405.812 147.999
L407.606 145.891
L409.329 143.46
L410.994 140.754
L413.142 136.799
L415.737 131.451
L418.749 124.692
L424.023 112.176
L430.656 96.5148
L435.027 86.7484
L438.93 78.5602
L442.641 71.2995
L446.046 65.1228
L449.257 59.7456
L452.257 55.144
L455.038 51.2767
L457.547 48.1641
L459.665 45.876
L461.311 44.4058
L461.518 44.2499
L461.518 44.2499" style="fill:none;stroke:#ff0000;"/>
   </g>
   <g id="line2d_25">
    <path clip-path="url(#p5873ec822d)" d="
M137.982 396.473
L138.456 394.935
L139.283 393.013
L140.498 390.755
L142.115 388.232
L144.014 385.678
L146.196 383.116
L148.586 380.656
L151.181 378.317
L153.813 376.246
L156.608 374.339
L159.478 372.661
L162.317 371.253
L165.485 369.951
L168.477 368.955
L171.734 368.101
L175.259 367.408
L179.051 366.879
L184.508 366.384
L193.471 365.636
L196.638 365.168
L199.883 364.447
L202.364 363.669
L204.883 362.625
L207.439 361.249
L209.165 360.112
L210.907 358.774
L212.669 357.212
L214.449 355.403
L216.252 353.322
L218.078 350.946
L219.93 348.253
L221.812 345.219
L223.728 341.824
L226.674 336.016
L229.722 329.303
L232.892 321.65
L236.204 313.045
L240.881 300.114
L247.222 281.774
L257.193 252.867
L261.899 239.738
L266.878 226.438
L272.129 213.183
L275.777 204.483
L279.538 195.972
L283.407 187.718
L287.376 179.786
L291.436 172.24
L293.498 168.629
L295.603 165.409
L299.89 159.952
L304.192 155.114
L308.494 150.895
L312.781 147.292
L314.914 145.718
L317.039 144.291
L319.152 143.01
L321.253 141.87
L323.34 140.869
L325.411 140.002
L329.501 138.65
L333.512 137.775
L337.434 137.333
L341.26 137.275
L344.983 137.55
L348.596 138.107
L352.097 138.895
L355.482 139.861
L360.34 141.535
L366.408 143.947
L374.664 147.296
L378.437 148.617
L381.992 149.597
L384.249 150.034
L386.423 150.286
L388.516 150.346
L390.536 150.212
L392.486 149.882
L394.371 149.359
L396.195 148.649
L397.963 147.759
L399.678 146.698
L401.344 145.475
L403.758 143.363
L406.079 140.955
L408.313 138.293
L410.469 135.421
L413.23 131.337
L415.872 127.05
L419.015 121.535
L423.139 113.772
L428.497 103.119
L441.746 76.5211
L446.412 67.7483
L450.419 60.6742
L453.93 54.9094
L457.081 50.1545
L459.77 46.4869
L461.614 44.2376
L461.614 44.2376" style="fill:none;stroke:#ff0000;"/>
   </g>
   <g id="matplotlib.axis_1">
    <g id="xtick_1">
     <g id="line2d_26">
      <defs>
       <path d="
M0 0
L0 -4" id="m0012dd4eef" style="stroke:#000000;stroke-linecap:butt;stroke-width:0.5;"/>
      </defs>
      <g>
       <use style="stroke:#000000;stroke-linecap:butt;stroke-width:0.5;" x="73.125" xlink:href="#m0012dd4eef" y="396.9"/>
      </g>
     </g>
     <g id="line2d_27">
      <defs>
       <path d="
M0 0
L0 4" id="m476344969c" style="stroke:#000000;stroke-linecap:butt;stroke-width:0.5;"/>
      </defs>
      <g>
       <use style="stroke:#000000;stroke-linecap:butt;stroke-width:0.5;" x="73.125" xlink:href="#m476344969c" y="44.1"/>
      </g>
     </g>
     <g id="text_1">
      <!-- 0.2 -->
      <defs>
       <path d="
M31.7812 66.4062
Q24.1719 66.4062 20.3281 58.9062
Q16.5 51.4219 16.5 36.375
Q16.5 21.3906 20.3281 13.8906
Q24.1719 6.39062 31.7812 6.39062
Q39.4531 6.39062 43.2812 13.8906
Q47.125 21.3906 47.125 36.375
Q47.125 51.4219 43.2812 58.9062
Q39.4531 66.4062 31.7812 66.4062
M31.7812 74.2188
Q44.0469 74.2188 50.5156 64.5156
Q56.9844 54.8281 56.9844 36.375
Q56.9844 17.9688 50.5156 8.26562
Q44.0469 -1.42188 31.7812 -1.42188
Q19.5312 -1.42188 13.0625 8.26562
Q6.59375 17.9688 6.59375 36.375
Q6.59375 54.8281 13.0625 64.5156
Q19.5312 74.2188 31.7812 74.2188" id="DejaVuSans-30"/>
       <path d="
M10.6875 12.4062
L21 12.4062
L21 0
L10.6875 0
z
" id="DejaVuSans-2e"/>
       <path d="
M19.1875 8.29688
L53.6094 8.29688
L53.6094 0
L7.32812 0
L7.32812 8.29688
Q12.9375 14.1094 22.625 23.8906
Q32.3281 33.6875 34.8125 36.5312
Q39.5469 41.8438 41.4219 45.5312
Q43.3125 49.2188 43.3125 52.7812
Q43.3125 58.5938 39.2344 62.25
Q35.1562 65.9219 28.6094 65.9219
Q23.9688 65.9219 18.8125 64.3125
Q13.6719 62.7031 7.8125 59.4219
L7.8125 69.3906
Q13.7656 71.7812 18.9375 73
Q24.125 74.2188 28.4219 74.2188
Q39.75 74.2188 46.4844 68.5469
Q53.2188 62.8906 53.2188 53.4219
Q53.2188 48.9219 51.5312 44.8906
Q49.8594 40.875 45.4062 35.4062
Q44.1875 33.9844 37.6406 27.2188
Q31.1094 20.4531 19.1875 8.29688" id="DejaVuSans-32"/>
       <path d="
M10.5938 35.5
L73.1875 35.5
L73.1875 27.2031
L10.5938 27.2031
z
" id="DejaVuSans-2212"/>
      </defs>
      <g transform="translate(59.791875 409.80625)scale(0.12 -0.12)">
       <use xlink:href="#DejaVuSans-2212"/>
       <use x="83.7890625" xlink:href="#DejaVuSans-30"/>
       <use x="147.412109375" xlink:href="#DejaVuSans-2e"/>
       <use x="179.19921875" xlink:href="#DejaVuSans-32"/>
      </g>
     </g>
    </g>
    <g id="xtick_2">
     <g id="line2d_28">
      <g>
       <use style="stroke:#000000;stroke-linecap:butt;stroke-width:0.5;" x="137.892857143" xlink:href="#m0012dd4eef" y="396.9"/>
      </g>
     </g>
     <g id="line2d_29">
      <g>
       <use style="stroke:#000000;stroke-linecap:butt;stroke-width:0.5;" x="137.892857143" xlink:href="#m476344969c" y="44.1"/>
      </g>
     </g>
     <g id="text_2">
      <!-- 0.0 -->
      <g transform="translate(129.145044643 409.80625)scale(0.12 -0.12)">
       <use xlink:href="#DejaVuSans-30"/>
       <use x="63.623046875" xlink:href="#DejaVuSans-2e"/>
       <use x="95.41015625" xlink:href="#DejaVuSans-30"/>
      </g>
     </g>
    </g>
    <g id="xtick_3">
     <g id="line2d_30">
      <g>
       <use style="stroke:#000000;stroke-linecap:butt;stroke-width:0.5;" x="202.660714286" xlink:href="#m0012dd4eef" y="396.9"/>
      </g>
     </g>
     <g id="line2d_31">
      <g>
       <use style="stroke:#000000;stroke-linecap:butt;stroke-width:0.5;" x="202.660714286" xlink:href="#m476344969c" y="44.1"/>
      </g>
     </g>
     <g id="text_3">
      <!-- 0.2 -->
      <g transform="translate(194.115401786 409.80625)scale(0.12 -0.12)">
       <use xlink:href="#DejaVuSans-30"/>
       <use x="63.623046875" xlink:href="#DejaVuSans-2e"/>
       <use x="95.41015625" xlink:href="#DejaVuSans-32"/>
      </g>
     </g>
    </g>
    <g id="xtick_4">
     <g id="line2d_32">
      <g>
       <use style="stroke:#000000;stroke-linecap:butt;stroke-width:0.5;" x="267.428571429" xlink:href="#m0012dd4eef" y="396.9"/>
      </g>
     </g>
     <g id="line2d_33">
      <g>
       <use style="stroke:#000000;stroke-linecap:butt;stroke-width:0.5;" x="267.428571429" xlink:href="#m476344969c" y="44.1"/>
      </g>
     </g>
     <g id="text_4">
      <!-- 0.4 -->
      <defs>
       <path d="
M37.7969 64.3125
L12.8906 25.3906
L37.7969 25.3906
z

M35.2031 72.9062
L47.6094 72.9062
L47.6094 25.3906
L58.0156 25.3906
L58.0156 17.1875
L47.6094 17.1875
L47.6094 0
L37.7969 0
L37.7969 17.1875
L4.89062 17.1875
L4.89062 26.7031
z
" id="DejaVuSans-34"/>
      </defs>
      <g transform="translate(258.618883929 409.80625)scale(0.12 -0.12)">
       <use xlink:href="#DejaVuSans-30"/>
       <use x="63.623046875" xlink:href="#DejaVuSans-2e"/>
       <use x="95.41015625" xlink:href="#DejaVuSans-34"/>
      </g>
     </g>
    </g>
    <g id="xtick_5">
     <g id="line2d_34">
      <g>
       <use style="stroke:#000000;stroke-linecap:butt;stroke-width:0.5;" x="332.196428571" xlink:href="#m0012dd4eef" y="396.9"/>
      </g>
     </g>
     <g id="line2d_35">
      <g>
       <use style="stroke:#000000;stroke-linecap:butt;stroke-width:0.5;" x="332.196428571" xlink:href="#m476344969c" y="44.1"/>
      </g>
     </g>
     <g id="text_5">
      <!-- 0.6 -->
      <defs>
       <path d="
M33.0156 40.375
Q26.375 40.375 22.4844 35.8281
Q18.6094 31.2969 18.6094 23.3906
Q18.6094 15.5312 22.4844 10.9531
Q26.375 6.39062 33.0156 6.39062
Q39.6562 6.39062 43.5312 10.9531
Q47.4062 15.5312 47.4062 23.3906
Q47.4062 31.2969 43.5312 35.8281
Q39.6562 40.375 33.0156 40.375
M52.5938 71.2969
L52.5938 62.3125
Q48.875 64.0625 45.0938 64.9844
Q41.3125 65.9219 37.5938 65.9219
Q27.8281 65.9219 22.6719 59.3281
Q17.5312 52.7344 16.7969 39.4062
Q19.6719 43.6562 24.0156 45.9219
Q28.375 48.1875 33.5938 48.1875
Q44.5781 48.1875 50.9531 41.5156
Q57.3281 34.8594 57.3281 23.3906
Q57.3281 12.1562 50.6875 5.35938
Q44.0469 -1.42188 33.0156 -1.42188
Q20.3594 -1.42188 13.6719 8.26562
Q6.98438 17.9688 6.98438 36.375
Q6.98438 53.6562 15.1875 63.9375
Q23.3906 74.2188 37.2031 74.2188
Q40.9219 74.2188 44.7031 73.4844
Q48.4844 72.75 52.5938 71.2969" id="DejaVuSans-36"/>
      </defs>
      <g transform="translate(323.427991071 409.80625)scale(0.12 -0.12)">
       <use xlink:href="#DejaVuSans-30"/>
       <use x="63.623046875" xlink:href="#DejaVuSans-2e"/>
       <use x="95.41015625" xlink:href="#DejaVuSans-36"/>
      </g>
     </g>
    </g>
    <g id="xtick_6">
     <g id="line2d_36">
      <g>
       <use style="stroke:#000000;stroke-linecap:butt;stroke-width:0.5;" x="396.964285714" xlink:href="#m0012dd4eef" y="396.9"/>
      </g>
     </g>
     <g id="line2d_37">
      <g>
       <use style="stroke:#000000;stroke-linecap:butt;stroke-width:0.5;" x="396.964285714" xlink:href="#m476344969c" y="44.1"/>
      </g>
     </g>
     <g id="text_6">
      <!-- 0.8 -->
      <defs>
       <path d="
M31.7812 34.625
Q24.75 34.625 20.7188 30.8594
Q16.7031 27.0938 16.7031 20.5156
Q16.7031 13.9219 20.7188 10.1562
Q24.75 6.39062 31.7812 6.39062
Q38.8125 6.39062 42.8594 10.1719
Q46.9219 13.9688 46.9219 20.5156
Q46.9219 27.0938 42.8906 30.8594
Q38.875 34.625 31.7812 34.625
M21.9219 38.8125
Q15.5781 40.375 12.0312 44.7188
Q8.5 49.0781 8.5 55.3281
Q8.5 64.0625 14.7188 69.1406
Q20.9531 74.2188 31.7812 74.2188
Q42.6719 74.2188 48.875 69.1406
Q55.0781 64.0625 55.0781 55.3281
Q55.0781 49.0781 51.5312 44.7188
Q48 40.375 41.7031 38.8125
Q48.8281 37.1562 52.7969 32.3125
Q56.7812 27.4844 56.7812 20.5156
Q56.7812 9.90625 50.3125 4.23438
Q43.8438 -1.42188 31.7812 -1.42188
Q19.7344 -1.42188 13.25 4.23438
Q6.78125 9.90625 6.78125 20.5156
Q6.78125 27.4844 10.7812 32.3125
Q14.7969 37.1562 21.9219 38.8125
M18.3125 54.3906
Q18.3125 48.7344 21.8438 45.5625
Q25.3906 42.3906 31.7812 42.3906
Q38.1406 42.3906 41.7188 45.5625
Q45.3125 48.7344 45.3125 54.3906
Q45.3125 60.0625 41.7188 63.2344
Q38.1406 66.4062 31.7812 66.4062
Q25.3906 66.4062 21.8438 63.2344
Q18.3125 60.0625 18.3125 54.3906" id="DejaVuSans-38"/>
      </defs>
      <g transform="translate(388.228660714 409.80625)scale(0.12 -0.12)">
       <use xlink:href="#DejaVuSans-30"/>
       <use x="63.623046875" xlink:href="#DejaVuSans-2e"/>
       <use x="95.41015625" xlink:href="#DejaVuSans-38"/>
      </g>
     </g>
    </g>
    <g id="xtick_7">
     <g id="line2d_38">
      <g>
       <use style="stroke:#000000;stroke-linecap:butt;stroke-width:0.5;" x="461.732142857" xlink:href="#m0012dd4eef" y="396.9"/>
      </g>
     </g>
     <g id="line2d_39">
      <g>
       <use style="stroke:#000000;stroke-linecap:butt;stroke-width:0.5;" x="461.732142857" xlink:href="#m476344969c" y="44.1"/>
      </g>
     </g>
     <g id="text_7">
      <!-- 1.0 -->
      <defs>
       <path d="
M12.4062 8.29688
L28.5156 8.29688
L28.5156 63.9219
L10.9844 60.4062
L10.9844 69.3906
L28.4219 72.9062
L38.2812 72.9062
L38.2812 8.29688
L54.3906 8.29688
L54.3906 0
L12.4062 0
z
" id="DejaVuSans-31"/>
      </defs>
      <g transform="translate(453.247767857 409.80625)scale(0.12 -0.12)">
       <use xlink:href="#DejaVuSans-31"/>
       <use x="63.623046875" xlink:href="#DejaVuSans-2e"/>
       <use x="95.41015625" xlink:href="#DejaVuSans-30"/>
      </g>
     </g>
    </g>
    <g id="xtick_8">
     <g id="line2d_40">
      <g>
       <use style="stroke:#000000;stroke-linecap:butt;stroke-width:0.5;" x="526.5" xlink:href="#m0012dd4eef" y="396.9"/>
      </g>
     </g>
     <g id="line2d_41">
      <g>
       <use style="stroke:#000000;stroke-linecap:butt;stroke-width:0.5;" x="526.5" xlink:href="#m476344969c" y="44.1"/>
      </g>
     </g>
     <g id="text_8">
      <!-- 1.2 -->
      <g transform="translate(518.218125 409.80625)scale(0.12 -0.12)">
       <use xlink:href="#DejaVuSans-31"/>
       <use x="63.623046875" xlink:href="#DejaVuSans-2e"/>
       <use x="95.41015625" xlink:href="#DejaVuSans-32"/>
      </g>
     </g>
    </g>
   </g>
   <g id="matplotlib.axis_2">
    <g id="ytick_1">
     <g id="line2d_42">
      <defs>
       <path d="
M0 0
L4 0" id="me8a85f7bf6" style="stroke:#000000;stroke-linecap:butt;stroke-width:0.5;"/>
      </defs>
      <g>
       <use style="stroke:#000000;stroke-linecap:butt;stroke-width:0.5;" x="73.125" xlink:href="#me8a85f7bf6" y="396.9"/>
      </g>
     </g>
     <g id="line2d_43">
      <defs>
       <path d="
M0 0
L-4 0" id="m1a32005dea" style="stroke:#000000;stroke-linecap:butt;stroke-width:0.5;"/>
      </defs>
      <g>
       <use style="stroke:#000000;stroke-linecap:butt;stroke-width:0.5;" x="526.5" xlink:href="#m1a32005dea" y="396.9"/>
      </g>
     </g>
     <g id="text_9">
      <!-- 0.0 -->
      <g transform="translate(51.629375 401.2678125)scale(0.12 -0.12)">
       <use xlink:href="#DejaVuSans-30"/>
       <use x="63.623046875" xlink:href="#DejaVuSans-2e"/>
       <use x="95.41015625" xlink:href="#DejaVuSans-30"/>
      </g>
     </g>
    </g>
    <g id="ytick_2">
     <g id="line2d_44">
      <g>
       <use style="stroke:#000000;stroke-linecap:butt;stroke-width:0.5;" x="73.125" xlink:href="#me8a85f7bf6" y="326.34"/>
      </g>
     </g>
     <g id="line2d_45">
      <g>
       <use style="stroke:#000000;stroke-linecap:butt;stroke-width:0.5;" x="526.5" xlink:href="#m1a32005dea" y="326.34"/>
      </g>
     </g>
     <g id="text_10">
      <!-- 0.2 -->
      <g transform="translate(52.034375 330.7078125)scale(0.12 -0.12)">
       <use xlink:href="#DejaVuSans-30"/>
       <use x="63.623046875" xlink:href="#DejaVuSans-2e"/>
       <use x="95.41015625" xlink:href="#DejaVuSans-32"/>
      </g>
     </g>
    </g>
    <g id="ytick_3">
     <g id="line2d_46">
      <g>
       <use style="stroke:#000000;stroke-linecap:butt;stroke-width:0.5;" x="73.125" xlink:href="#me8a85f7bf6" y="255.78"/>
      </g>
     </g>
     <g id="line2d_47">
      <g>
       <use style="stroke:#000000;stroke-linecap:butt;stroke-width:0.5;" x="526.5" xlink:href="#m1a32005dea" y="255.78"/>
      </g>
     </g>
     <g id="text_11">
      <!-- 0.4 -->
      <g transform="translate(51.505625 260.1478125)scale(0.12 -0.12)">
       <use xlink:href="#DejaVuSans-30"/>
       <use x="63.623046875" xlink:href="#DejaVuSans-2e"/>
       <use x="95.41015625" xlink:href="#DejaVuSans-34"/>
      </g>
     </g>
    </g>
    <g id="ytick_4">
     <g id="line2d_48">
      <g>
       <use style="stroke:#000000;stroke-linecap:butt;stroke-width:0.5;" x="73.125" xlink:href="#me8a85f7bf6" y="185.22"/>
      </g>
     </g>
     <g id="line2d_49">
      <g>
       <use style="stroke:#000000;stroke-linecap:butt;stroke-width:0.5;" x="526.5" xlink:href="#m1a32005dea" y="185.22"/>
      </g>
     </g>
     <g id="text_12">
      <!-- 0.6 -->
      <g transform="translate(51.588125 189.5878125)scale(0.12 -0.12)">
       <use xlink:href="#DejaVuSans-30"/>
       <use x="63.623046875" xlink:href="#DejaVuSans-2e"/>
       <use x="95.41015625" xlink:href="#DejaVuSans-36"/>
      </g>
     </g>
    </g>
    <g id="ytick_5">
     <g id="line2d_50">
      <g>
       <use style="stroke:#000000;stroke-linecap:butt;stroke-width:0.5;" x="73.125" xlink:href="#me8a85f7bf6" y="114.66"/>
      </g>
     </g>
     <g id="line2d_51">
      <g>
       <use style="stroke:#000000;stroke-linecap:butt;stroke-width:0.5;" x="526.5" xlink:href="#m1a32005dea" y="114.66"/>
      </g>
     </g>
     <g id="text_13">
      <!-- 0.8 -->
      <g transform="translate(51.65375 119.0278125)scale(0.12 -0.12)">
       <use xlink:href="#DejaVuSans-30"/>
       <use x="63.623046875" xlink:href="#DejaVuSans-2e"/>
       <use x="95.41015625" xlink:href="#DejaVuSans-38"/>
      </g>
     </g>
    </g>
    <g id="ytick_6">
     <g id="line2d_52">
      <g>
       <use style="stroke:#000000;stroke-linecap:butt;stroke-width:0.5;" x="73.125" xlink:href="#me8a85f7bf6" y="44.1"/>
      </g>
     </g>
     <g id="line2d_53">
      <g>
       <use style="stroke:#000000;stroke-linecap:butt;stroke-width:0.5;" x="526.5" xlink:href="#m1a32005dea" y="44.1"/>
      </g>
     </g>
     <g id="text_14">
      <!-- 1.0 -->
      <g transform="translate(52.15625 48.4678125)scale(0.12 -0.12)">
       <use xlink:href="#DejaVuSans-31"/>
       <use x="63.623046875" xlink:href="#DejaVuSans-2e"/>
       <use x="95.41015625" xlink:href="#DejaVuSans-30"/>
      </g>
     </g>
    </g>
   </g>
   <g id="patch_3">
    <path d="
M73.125 44.1
L526.5 44.1" style="fill:none;stroke:#000000;"/>
   </g>
   <g id="patch_4">
    <path d="
M526.5 396.9
L526.5 44.1" style="fill:none;stroke:#000000;"/>
   </g>
   <g id="patch_5">
    <path d="
M73.125 396.9
L526.5 396.9" style="fill:none;stroke:#000000;"/>
   </g>
   <g id="patch_6">
    <path d="
M73.125 396.9
L73.125 44.1" style="fill:none;stroke:#000000;"/>
   </g>
   <g id="legend_1">
    <g id="patch_7">
     <path d="
M80.325 116.035
L244.937 116.035
L244.937 51.3
L80.325 51.3
L80.325 116.035
z
" style="fill:#ffffff;stroke:#000000;"/>
    </g>
    <g id="line2d_54">
     <path d="
M90.405 62.9617
L110.565 62.9617" style="fill:none;stroke:#0000ff;stroke-width:2;"/>
    </g>
    <g id="line2d_55"/>
    <g id="text_15">
     <!-- True -->
     <defs>
      <path d="
M8.5 21.5781
L8.5 54.6875
L17.4844 54.6875
L17.4844 21.9219
Q17.4844 14.1562 20.5 10.2656
Q23.5312 6.39062 29.5938 6.39062
Q36.8594 6.39062 41.0781 11.0312
Q45.3125 15.6719 45.3125 23.6875
L45.3125 54.6875
L54.2969 54.6875
L54.2969 0
L45.3125 0
L45.3125 8.40625
Q42.0469 3.42188 37.7188 1
Q33.4062 -1.42188 27.6875 -1.42188
Q18.2656 -1.42188 13.375 4.4375
Q8.5 10.2969 8.5 21.5781
M31.1094 56
z
" id="DejaVuSans-75"/>
      <path d="
M41.1094 46.2969
Q39.5938 47.1719 37.8125 47.5781
Q36.0312 48 33.8906 48
Q26.2656 48 22.1875 43.0469
Q18.1094 38.0938 18.1094 28.8125
L18.1094 0
L9.07812 0
L9.07812 54.6875
L18.1094 54.6875
L18.1094 46.1875
Q20.9531 51.1719 25.4844 53.5781
Q30.0312 56 36.5312 56
Q37.4531 56 38.5781 55.875
Q39.7031 55.7656 41.0625 55.5156
z
" id="DejaVuSans-72"/>
      <path d="
M56.2031 29.5938
L56.2031 25.2031
L14.8906 25.2031
Q15.4844 15.9219 20.4844 11.0625
Q25.4844 6.20312 34.4219 6.20312
Q39.5938 6.20312 44.4531 7.46875
Q49.3125 8.73438 54.1094 11.2812
L54.1094 2.78125
Q49.2656 0.734375 44.1875 -0.34375
Q39.1094 -1.42188 33.8906 -1.42188
Q20.7969 -1.42188 13.1562 6.1875
Q5.51562 13.8125 5.51562 26.8125
Q5.51562 40.2344 12.7656 48.1094
Q20.0156 56 32.3281 56
Q43.3594 56 49.7812 48.8906
Q56.2031 41.7969 56.2031 29.5938
M47.2188 32.2344
Q47.125 39.5938 43.0938 43.9844
Q39.0625 48.3906 32.4219 48.3906
Q24.9062 48.3906 20.3906 44.1406
Q15.875 39.8906 15.1875 32.1719
z
" id="DejaVuSans-65"/>
      <path d="
M-0.296875 72.9062
L61.375 72.9062
L61.375 64.5938
L35.5 64.5938
L35.5 0
L25.5938 0
L25.5938 64.5938
L-0.296875 64.5938
z
" id="DejaVuSans-54"/>
     </defs>
     <g transform="translate(126.405 68.00175)scale(0.144 -0.144)">
      <use xlink:href="#DejaVuSans-54"/>
      <use x="46.333984375" xlink:href="#DejaVuSans-72"/>
      <use x="87.447265625" xlink:href="#DejaVuSans-75"/>
      <use x="150.826171875" xlink:href="#DejaVuSans-65"/>
     </g>
    </g>
    <g id="line2d_56">
     <path d="
M90.405 84.0982
L110.565 84.0982" style="fill:none;stroke:#ff0000;"/>
    </g>
    <g id="line2d_57"/>
    <g id="text_16">
     <!-- Demonstrations -->
     <defs>
      <path d="
M30.6094 48.3906
Q23.3906 48.3906 19.1875 42.75
Q14.9844 37.1094 14.9844 27.2969
Q14.9844 17.4844 19.1562 11.8438
Q23.3438 6.20312 30.6094 6.20312
Q37.7969 6.20312 41.9844 11.8594
Q46.1875 17.5312 46.1875 27.2969
Q46.1875 37.0156 41.9844 42.7031
Q37.7969 48.3906 30.6094 48.3906
M30.6094 56
Q42.3281 56 49.0156 48.375
Q55.7188 40.7656 55.7188 27.2969
Q55.7188 13.875 49.0156 6.21875
Q42.3281 -1.42188 30.6094 -1.42188
Q18.8438 -1.42188 12.1719 6.21875
Q5.51562 13.875 5.51562 27.2969
Q5.51562 40.7656 12.1719 48.375
Q18.8438 56 30.6094 56" id="DejaVuSans-6f"/>
      <path d="
M52 44.1875
Q55.375 50.25 60.0625 53.125
Q64.75 56 71.0938 56
Q79.6406 56 84.2812 50.0156
Q88.9219 44.0469 88.9219 33.0156
L88.9219 0
L79.8906 0
L79.8906 32.7188
Q79.8906 40.5781 77.0938 44.375
Q74.3125 48.1875 68.6094 48.1875
Q61.625 48.1875 57.5625 43.5469
Q53.5156 38.9219 53.5156 30.9062
L53.5156 0
L44.4844 0
L44.4844 32.7188
Q44.4844 40.625 41.7031 44.4062
Q38.9219 48.1875 33.1094 48.1875
Q26.2188 48.1875 22.1562 43.5312
Q18.1094 38.875 18.1094 30.9062
L18.1094 0
L9.07812 0
L9.07812 54.6875
L18.1094 54.6875
L18.1094 46.1875
Q21.1875 51.2188 25.4844 53.6094
Q29.7812 56 35.6875 56
Q41.6562 56 45.8281 52.9688
Q50 49.9531 52 44.1875" id="DejaVuSans-6d"/>
      <path d="
M54.8906 33.0156
L54.8906 0
L45.9062 0
L45.9062 32.7188
Q45.9062 40.4844 42.875 44.3281
Q39.8438 48.1875 33.7969 48.1875
Q26.5156 48.1875 22.3125 43.5469
Q18.1094 38.9219 18.1094 30.9062
L18.1094 0
L9.07812 0
L9.07812 54.6875
L18.1094 54.6875
L18.1094 46.1875
Q21.3438 51.125 25.7031 53.5625
Q30.0781 56 35.7969 56
Q45.2188 56 50.0469 50.1719
Q54.8906 44.3438 54.8906 33.0156" id="DejaVuSans-6e"/>
      <path d="
M19.6719 64.7969
L19.6719 8.10938
L31.5938 8.10938
Q46.6875 8.10938 53.6875 14.9375
Q60.6875 21.7812 60.6875 36.5312
Q60.6875 51.1719 53.6875 57.9844
Q46.6875 64.7969 31.5938 64.7969
z

M9.8125 72.9062
L30.0781 72.9062
Q51.2656 72.9062 61.1719 64.0938
Q71.0938 55.2812 71.0938 36.5312
Q71.0938 17.6719 61.125 8.82812
Q51.1719 0 30.0781 0
L9.8125 0
z
" id="DejaVuSans-44"/>
      <path d="
M9.42188 54.6875
L18.4062 54.6875
L18.4062 0
L9.42188 0
z

M9.42188 75.9844
L18.4062 75.9844
L18.4062 64.5938
L9.42188 64.5938
z
" id="DejaVuSans-69"/>
      <path d="
M18.3125 70.2188
L18.3125 54.6875
L36.8125 54.6875
L36.8125 47.7031
L18.3125 47.7031
L18.3125 18.0156
Q18.3125 11.3281 20.1406 9.42188
Q21.9688 7.51562 27.5938 7.51562
L36.8125 7.51562
L36.8125 0
L27.5938 0
Q17.1875 0 13.2344 3.875
Q9.28125 7.76562 9.28125 18.0156
L9.28125 47.7031
L2.6875 47.7031
L2.6875 54.6875
L9.28125 54.6875
L9.28125 70.2188
z
" id="DejaVuSans-74"/>
      <path d="
M44.2812 53.0781
L44.2812 44.5781
Q40.4844 46.5312 36.375 47.5
Q32.2812 48.4844 27.875 48.4844
Q21.1875 48.4844 17.8438 46.4375
Q14.5 44.3906 14.5 40.2812
Q14.5 37.1562 16.8906 35.375
Q19.2812 33.5938 26.5156 31.9844
L29.5938 31.2969
Q39.1562 29.25 43.1875 25.5156
Q47.2188 21.7812 47.2188 15.0938
Q47.2188 7.46875 41.1875 3.01562
Q35.1562 -1.42188 24.6094 -1.42188
Q20.2188 -1.42188 15.4531 -0.5625
Q10.6875 0.296875 5.42188 2
L5.42188 11.2812
Q10.4062 8.6875 15.2344 7.39062
Q20.0625 6.10938 24.8125 6.10938
Q31.1562 6.10938 34.5625 8.28125
Q37.9844 10.4531 37.9844 14.4062
Q37.9844 18.0625 35.5156 20.0156
Q33.0625 21.9688 24.7031 23.7812
L21.5781 24.5156
Q13.2344 26.2656 9.51562 29.9062
Q5.8125 33.5469 5.8125 39.8906
Q5.8125 47.6094 11.2812 51.7969
Q16.75 56 26.8125 56
Q31.7812 56 36.1719 55.2656
Q40.5781 54.5469 44.2812 53.0781" id="DejaVuSans-73"/>
      <path d="
M34.2812 27.4844
Q23.3906 27.4844 19.1875 25
Q14.9844 22.5156 14.9844 16.5
Q14.9844 11.7188 18.1406 8.90625
Q21.2969 6.10938 26.7031 6.10938
Q34.1875 6.10938 38.7031 11.4062
Q43.2188 16.7031 43.2188 25.4844
L43.2188 27.4844
z

M52.2031 31.2031
L52.2031 0
L43.2188 0
L43.2188 8.29688
Q40.1406 3.32812 35.5469 0.953125
Q30.9531 -1.42188 24.3125 -1.42188
Q15.9219 -1.42188 10.9531 3.29688
Q6 8.01562 6 15.9219
Q6 25.1406 12.1719 29.8281
Q18.3594 34.5156 30.6094 34.5156
L43.2188 34.5156
L43.2188 35.4062
Q43.2188 41.6094 39.1406 45
Q35.0625 48.3906 27.6875 48.3906
Q23 48.3906 18.5469 47.2656
Q14.1094 46.1406 10.0156 43.8906
L10.0156 52.2031
Q14.9375 54.1094 19.5781 55.0469
Q24.2188 56 28.6094 56
Q40.4844 56 46.3438 49.8438
Q52.2031 43.7031 52.2031 31.2031" id="DejaVuSans-61"/>
     </defs>
     <g transform="translate(126.405 89.13825)scale(0.144 -0.144)">
      <use xlink:href="#DejaVuSans-44"/>
      <use x="77.001953125" xlink:href="#DejaVuSans-65"/>
      <use x="138.525390625" xlink:href="#DejaVuSans-6d"/>
      <use x="235.9375" xlink:href="#DejaVuSans-6f"/>
      <use x="297.119140625" xlink:href="#DejaVuSans-6e"/>
      <use x="360.498046875" xlink:href="#DejaVuSans-73"/>
      <use x="412.59765625" xlink:href="#DejaVuSans-74"/>
      <use x="451.806640625" xlink:href="#DejaVuSans-72"/>
      <use x="492.919921875" xlink:href="#DejaVuSans-61"/>
      <use x="554.19921875" xlink:href="#DejaVuSans-74"/>
      <use x="593.408203125" xlink:href="#DejaVuSans-69"/>
      <use x="621.19140625" xlink:href="#DejaVuSans-6f"/>
      <use x="682.373046875" xlink:href="#DejaVuSans-6e"/>
      <use x="745.751953125" xlink:href="#DejaVuSans-73"/>
     </g>
    </g>
    <g id="line2d_58">
     <path d="
M90.405 105.235
L110.565 105.235" style="fill:none;stroke:#000000;stroke-width:2;"/>
    </g>
    <g id="line2d_59"/>
    <g id="text_17">
     <!-- DMP -->
     <defs>
      <path d="
M9.8125 72.9062
L24.5156 72.9062
L43.1094 23.2969
L61.8125 72.9062
L76.5156 72.9062
L76.5156 0
L66.8906 0
L66.8906 64.0156
L48.0938 14.0156
L38.1875 14.0156
L19.3906 64.0156
L19.3906 0
L9.8125 0
z
" id="DejaVuSans-4d"/>
      <path d="
M19.6719 64.7969
L19.6719 37.4062
L32.0781 37.4062
Q38.9688 37.4062 42.7188 40.9688
Q46.4844 44.5312 46.4844 51.125
Q46.4844 57.6719 42.7188 61.2344
Q38.9688 64.7969 32.0781 64.7969
z

M9.8125 72.9062
L32.0781 72.9062
Q44.3438 72.9062 50.6094 67.3594
Q56.8906 61.8125 56.8906 51.125
Q56.8906 40.3281 50.6094 34.8125
Q44.3438 29.2969 32.0781 29.2969
L19.6719 29.2969
L19.6719 0
L9.8125 0
z
" id="DejaVuSans-50"/>
     </defs>
     <g transform="translate(126.405 110.27475)scale(0.144 -0.144)">
      <use xlink:href="#DejaVuSans-44"/>
      <use x="77.001953125" xlink:href="#DejaVuSans-4d"/>
      <use x="163.28125" xlink:href="#DejaVuSans-50"/>
     </g>
    </g>
   </g>
   <g id="line2d_60">
    <path clip-path="url(#p5873ec822d)" d="
M138.293 396.464
L141.811 392.805
L144.876 389.94
L148.114 387.21
L151.632 384.54
L155.166 382.124
L159.038 379.746
L163.029 377.557
L167.313 375.476
L171.757 373.588
L176.192 371.959
L180.441 370.624
L185 369.426
L189.808 368.415
L194.759 367.629
L199.699 367.085
L205.686 366.672
L210.717 366.303
L212.471 365.998
L213.541 365.642
L214.376 365.127
L214.793 364.671
L215.093 364.104
L215.272 363.407
L215.312 362.076
L215.08 360.336
L214.368 357.246
L211.079 344.485
L209.913 338.939
L208.816 332.488
L208.177 327.662
L207.652 322.407
L207.281 316.72
L207.102 310.603
L207.157 304.063
L207.487 297.115
L208.135 289.777
L209.14 282.076
L210.542 274.045
L212.377 265.723
L214.678 257.155
L217.474 248.392
L219.065 243.956
L220.787 239.491
L222.644 235.008
L224.637 230.513
L226.767 226.014
L229.034 221.521
L231.439 217.042
L233.981 212.584
L236.661 208.158
L239.476 203.771
L242.426 199.433
L245.508 195.152
L248.718 190.936
L252.055 186.794
L255.515 182.735
L259.093 178.767
L262.785 174.897
L266.585 171.133
L270.489 167.483
L274.621 164.23
L278.935 161.403
L283.281 158.732
L287.65 156.219
L292.033 153.865
L296.422 151.669
L300.808 149.631
L305.184 147.751
L309.541 146.026
L313.871 144.456
L318.167 143.036
L322.42 141.765
L326.624 140.638
L330.772 139.653
L334.857 138.804
L338.873 138.088
L346.674 137.031
L354.133 136.438
L361.212 136.262
L367.881 136.453
L374.119 136.957
L379.909 137.722
L385.241 138.695
L390.112 139.824
L394.524 141.059
L398.486 142.351
L403.614 144.304
L407.818 146.155
L412.987 148.721
L416.679 150.503
L417.724 150.757
L418.188 150.675
L418.498 150.394
L418.679 149.914
L418.758 148.836
L418.616 146.771
L417.711 137.129
L417.523 132.061
L417.58 126.659
L417.915 121.094
L418.527 115.507
L419.397 110.012
L420.491 104.695
L421.773 99.6195
L423.2 94.8264
L425.051 89.4816
L426.996 84.5965
L428.983 80.1682
L431.298 75.5569
L433.879 70.9677
L436.341 67.0336
L438.929 63.2938
L441.554 59.8649
L444.349 56.5789
L447.142 53.6435
L449.933 51.0457
L452.516 48.9394
L455.005 47.1908
L457.322 45.8294
L459.431 44.8429
L461.184 44.2403
L461.184 44.2403" style="fill:none;stroke:#0000ff;stroke-width:2;"/>
   </g>
   <g id="line2d_61">
    <path clip-path="url(#p5873ec822d)" d="
M138.327 396.46
L143.893 391.129
L147.239 388.309
L150.759 385.627
L154.507 383.051
L158.498 380.584
L162.356 378.45
L166.505 376.397
L170.816 374.501
L175.137 372.83
L179.307 371.435
L183.826 370.154
L188.638 369.032
L193.644 368.109
L198.71 367.417
L203.659 366.968
L209.474 366.688
L213.625 366.442
L215.148 366.144
L215.984 365.763
L216.38 365.408
L216.641 364.953
L216.763 364.383
L216.683 363.27
L216.291 361.792
L215.312 359.13
L212.073 350.743
L210.565 346.309
L209.002 341.056
L207.471 334.913
L206.518 330.291
L205.658 325.229
L204.929 319.714
L204.368 313.739
L204.017 307.305
L203.918 300.419
L204.117 293.1
L204.661 285.376
L205.601 277.283
L206.987 268.868
L207.863 264.557
L208.87 260.187
L210.014 255.766
L211.301 251.302
L212.736 246.804
L214.323 242.28
L216.069 237.739
L217.975 233.191
L220.045 228.645
L222.281 224.109
L224.683 219.594
L227.253 215.108
L229.988 210.66
L232.887 206.261
L235.947 201.92
L239.164 197.645
L242.532 193.446
L246.045 189.333
L249.696 185.314
L253.478 181.399
L257.382 177.596
L261.397 173.916
L265.516 170.365
L269.726 166.953
L274.018 163.687
L278.381 160.573
L282.803 157.62
L287.273 154.832
L291.781 152.214
L296.315 149.771
L300.865 147.505
L305.421 145.419
L309.972 143.514
L314.509 141.789
L319.022 140.243
L323.503 138.874
L327.941 137.678
L332.33 136.652
L336.66 135.789
L340.925 135.084
L345.116 134.53
L349.227 134.12
L353.251 133.844
L357.181 133.694
L364.739 133.737
L371.857 134.174
L378.502 134.931
L384.647 135.936
L390.276 137.122
L395.381 138.428
L399.964 139.802
L404.034 141.195
L409.22 143.237
L413.375 145.123
L417.492 147.243
L422.299 149.785
L422.574 149.749
L422.687 149.523
L422.612 148.829
L421.872 146.195
L420.781 142.045
L419.886 137.638
L419.295 133.653
L418.874 129.391
L418.658 124.966
L418.664 120.47
L418.89 115.978
L419.323 111.543
L419.941 107.207
L420.938 101.975
L422.138 96.9919
L423.497 92.2933
L424.975 87.9051
L426.854 83.0699
L428.798 78.7058
L431.085 74.1815
L433.335 70.2158
L435.808 66.2942
L438.421 62.5693
L441.085 59.1674
L443.711 56.1664
L446.411 53.4061
L449.03 51.0289
L451.576 49.0061
L454.067 47.3013
L456.437 45.9512
L458.577 44.9847
L460.487 44.3596
L461.178 44.1991
L461.178 44.1991" style="fill:none;stroke:#000000;stroke-width:2;"/>
   </g>
  </g>
 </g>
 <defs>
  <clipPath id="p5873ec822d">
   <rect height="352.8" width="453.375" x="73.125" y="44.1"/>
  </clipPath>
 </defs>
</svg>
