<?xml version="1.0" encoding="UTF-8" standalone="no"?>
<!DOCTYPE svg PUBLIC "-//W3C//DTD SVG 1.0//EN" "http://www.w3.org/TR/2001/PR-SVG-20010719/DTD/svg10.dtd">
<svg width="16cm" height="21cm" viewBox="333 52 318 415" xmlns="http://www.w3.org/2000/svg" xmlns:xlink="http://www.w3.org/1999/xlink">
  <g>
    <rect style="fill: #ffffff" x="435" y="360" width="115" height="39"/>
    <rect style="fill: none; fill-opacity:0; stroke-width: 2; stroke: #000000" x="435" y="360" width="115" height="39"/>
    <text font-size="12.8" style="fill: #000000;text-anchor:middle;font-family:sans-serif;font-style:normal;font-weight:normal" x="492.5" y="383.4">
      <tspan x="492.5" y="383.4">Normalization</tspan>
    </text>
  </g>
  <g>
    <rect style="fill: #ffffff" x="334.4" y="279.7" width="315.8" height="39"/>
    <rect style="fill: none; fill-opacity:0; stroke-width: 2; stroke: #000000" x="334.4" y="279.7" width="315.8" height="39"/>
    <text font-size="12.8" style="fill: #000000;text-anchor:middle;font-family:sans-serif;font-style:normal;font-weight:normal" x="492.3" y="303.1">
      <tspan x="492.3" y="303.1">Feature Extraction / Dimensionality Reduction</tspan>
    </text>
  </g>
  <g>
    <rect style="fill: #ffffff" x="435.8" y="201.7" width="112.9" height="39"/>
    <rect style="fill: none; fill-opacity:0; stroke-width: 2; stroke: #000000" x="435.8" y="201.7" width="112.9" height="39"/>
    <text font-size="12.8" style="fill: #000000;text-anchor:middle;font-family:sans-serif;font-style:normal;font-weight:normal" x="492.25" y="225.1">
      <tspan x="492.25" y="225.1">Base Learners</tspan>
    </text>
  </g>
  <g>
    <rect style="fill: #ffffff" x="435.8" y="119.7" width="112.9" height="39"/>
    <rect style="fill: none; fill-opacity:0; stroke-width: 2; stroke: #000000" x="435.8" y="119.7" width="112.9" height="39"/>
    <text font-size="12.8" style="fill: #000000;text-anchor:middle;font-family:sans-serif;font-style:normal;font-weight:normal" x="492.25" y="143.1">
      <tspan x="492.25" y="143.1">Meta Learner</tspan>
    </text>
  </g>
  <g>
    <line style="fill: none; fill-opacity:0; stroke-width: 2; stroke: #000000" x1="492.5" y1="360" x2="492.322" y2="323.172"/>
    <polyline style="fill: none; fill-opacity:0; stroke-width: 2; stroke: #000000" points="497.359,330.912 492.311,320.936 487.359,330.96 "/>
  </g>
  <g>
    <line style="fill: none; fill-opacity:0; stroke-width: 2; stroke: #000000" x1="492.3" y1="279.7" x2="492.256" y2="245.172"/>
    <polyline style="fill: none; fill-opacity:0; stroke-width: 2; stroke: #000000" points="497.266,252.93 492.253,242.936 487.266,252.942 "/>
  </g>
  <g>
    <line style="fill: none; fill-opacity:0; stroke-width: 2; stroke: #000000" x1="492.25" y1="201.7" x2="492.25" y2="163.172"/>
    <polyline style="fill: none; fill-opacity:0; stroke-width: 2; stroke: #000000" points="497.25,170.936 492.25,160.936 487.25,170.936 "/>
  </g>
  <g>
    <line style="fill: none; fill-opacity:0; stroke-width: 2; stroke: #000000" x1="493" y1="439" x2="492.556" y2="403.472"/>
    <polyline style="fill: none; fill-opacity:0; stroke-width: 2; stroke: #000000" points="497.653,411.173 492.528,401.236 487.653,411.298 "/>
  </g>
  <g>
    <line style="fill: none; fill-opacity:0; stroke-width: 2; stroke: #000000" x1="492.25" y1="119.7" x2="491.137" y2="83.47"/>
    <polyline style="fill: none; fill-opacity:0; stroke-width: 2; stroke: #000000" points="496.373,91.0768 491.069,81.235 486.378,91.3838 "/>
  </g>
  <text font-size="22.5778" style="fill: #000000;text-anchor:start;font-family:sans-serif;font-style:normal;font-weight:normal" x="464" y="462">
    <tspan x="464" y="462">Data</tspan>
  </text>
  <text font-size="22.5778" style="fill: #000000;text-anchor:start;font-family:sans-serif;font-style:normal;font-weight:normal" x="434.8" y="73.6">
    <tspan x="434.8" y="73.6">Prediction</tspan>
  </text>
</svg>
